G75*
%MOIN*%
%OFA0B0*%
%FSLAX25Y25*%
%IPPOS*%
%LPD*%
%AMOC8*
5,1,8,0,0,1.08239X$1,22.5*
%
%ADD10C,0.00800*%
%ADD11C,0.00500*%
%ADD12C,0.00600*%
D10*
X0009300Y0006800D02*
X0014300Y0006800D01*
X0016800Y0009300D01*
X0016800Y0014300D01*
X0014300Y0016800D01*
X0016800Y0019300D01*
X0016800Y0024300D01*
X0014300Y0026800D01*
X0016800Y0029300D01*
X0016800Y0034300D01*
X0014300Y0036800D01*
X0016800Y0039300D01*
X0016800Y0044300D01*
X0014300Y0046800D01*
X0009300Y0046800D01*
X0006800Y0044300D01*
X0006800Y0039300D01*
X0009300Y0036800D01*
X0006800Y0034300D01*
X0006800Y0029300D01*
X0009300Y0026800D01*
X0006800Y0024300D01*
X0006800Y0019300D01*
X0009300Y0016800D01*
X0006800Y0014300D01*
X0006800Y0009300D01*
X0009300Y0006800D01*
X0023800Y0016800D02*
X0023800Y0036800D01*
X0026800Y0036800D01*
X0026800Y0037800D01*
X0026800Y0036800D02*
X0029800Y0036800D01*
X0029800Y0016800D01*
X0026800Y0016800D01*
X0026800Y0015800D01*
X0026800Y0016800D02*
X0023800Y0016800D01*
X0034300Y0016800D02*
X0039300Y0016800D01*
X0046800Y0014300D02*
X0046800Y0009300D01*
X0049300Y0006800D01*
X0054300Y0006800D01*
X0056800Y0009300D01*
X0056800Y0014300D01*
X0054300Y0016800D01*
X0056800Y0019300D01*
X0056800Y0024300D01*
X0054300Y0026800D01*
X0056800Y0029300D01*
X0056800Y0034300D01*
X0054300Y0036800D01*
X0056800Y0039300D01*
X0056800Y0044300D01*
X0054300Y0046800D01*
X0049300Y0046800D01*
X0046800Y0044300D01*
X0046800Y0039300D01*
X0049300Y0036800D01*
X0046800Y0034300D01*
X0046800Y0029300D01*
X0049300Y0026800D01*
X0046800Y0024300D01*
X0046800Y0019300D01*
X0049300Y0016800D01*
X0046800Y0014300D01*
D11*
X0039800Y0028300D02*
X0033800Y0028300D01*
X0033800Y0035300D01*
X0036800Y0035300D01*
X0039800Y0035300D01*
X0039800Y0033800D01*
X0039800Y0028300D01*
X0039800Y0035300D02*
X0039800Y0038300D01*
X0036800Y0035300D01*
X0033800Y0038300D01*
X0039800Y0038300D01*
X0039800Y0039800D01*
X0039800Y0045300D01*
X0033800Y0045300D01*
X0033800Y0038300D01*
X0033800Y0035300D01*
X0039800Y0033800D02*
X0039908Y0033802D01*
X0040016Y0033808D01*
X0040124Y0033818D01*
X0040232Y0033831D01*
X0040339Y0033849D01*
X0040445Y0033870D01*
X0040550Y0033895D01*
X0040655Y0033924D01*
X0040758Y0033957D01*
X0040860Y0033993D01*
X0040961Y0034034D01*
X0041060Y0034077D01*
X0041157Y0034125D01*
X0041253Y0034175D01*
X0041347Y0034229D01*
X0041438Y0034287D01*
X0041528Y0034348D01*
X0041616Y0034412D01*
X0041701Y0034479D01*
X0041783Y0034549D01*
X0041863Y0034622D01*
X0041940Y0034698D01*
X0042015Y0034777D01*
X0042086Y0034858D01*
X0042155Y0034942D01*
X0042221Y0035028D01*
X0042283Y0035116D01*
X0042342Y0035207D01*
X0042398Y0035300D01*
X0042451Y0035395D01*
X0042500Y0035491D01*
X0042545Y0035590D01*
X0042587Y0035690D01*
X0042625Y0035791D01*
X0042660Y0035894D01*
X0042691Y0035997D01*
X0042718Y0036102D01*
X0042741Y0036208D01*
X0042760Y0036315D01*
X0042776Y0036422D01*
X0042788Y0036530D01*
X0042796Y0036638D01*
X0042800Y0036746D01*
X0042800Y0036854D01*
X0042796Y0036962D01*
X0042788Y0037070D01*
X0042776Y0037178D01*
X0042760Y0037285D01*
X0042741Y0037392D01*
X0042718Y0037498D01*
X0042691Y0037603D01*
X0042660Y0037706D01*
X0042625Y0037809D01*
X0042587Y0037910D01*
X0042545Y0038010D01*
X0042500Y0038109D01*
X0042451Y0038205D01*
X0042398Y0038300D01*
X0042342Y0038393D01*
X0042283Y0038484D01*
X0042221Y0038572D01*
X0042155Y0038658D01*
X0042086Y0038742D01*
X0042015Y0038823D01*
X0041940Y0038902D01*
X0041863Y0038978D01*
X0041783Y0039051D01*
X0041701Y0039121D01*
X0041616Y0039188D01*
X0041528Y0039252D01*
X0041438Y0039313D01*
X0041347Y0039371D01*
X0041253Y0039425D01*
X0041157Y0039475D01*
X0041060Y0039523D01*
X0040961Y0039566D01*
X0040860Y0039607D01*
X0040758Y0039643D01*
X0040655Y0039676D01*
X0040550Y0039705D01*
X0040445Y0039730D01*
X0040339Y0039751D01*
X0040232Y0039769D01*
X0040124Y0039782D01*
X0040016Y0039792D01*
X0039908Y0039798D01*
X0039800Y0039800D01*
D12*
X0029000Y0033118D02*
X0029000Y0031984D01*
X0028433Y0031417D01*
X0026164Y0031417D01*
X0025597Y0031984D01*
X0025597Y0033118D01*
X0026164Y0033685D01*
X0027299Y0033685D02*
X0027299Y0032551D01*
X0027299Y0033685D02*
X0028433Y0033685D01*
X0029000Y0033118D01*
X0029000Y0030002D02*
X0029000Y0027734D01*
X0029000Y0028868D02*
X0025597Y0028868D01*
X0026731Y0027734D01*
M02*
