G75*
%MOIN*%
%OFA0B0*%
%FSLAX25Y25*%
%IPPOS*%
%LPD*%
%AMOC8*
5,1,8,0,0,1.08239X$1,22.5*
%
%ADD10C,0.00000*%
%ADD11C,0.06500*%
%ADD12C,0.05150*%
%ADD13R,0.07400X0.07400*%
%ADD14C,0.07400*%
%ADD15C,0.01600*%
%ADD16C,0.01000*%
D10*
X0001800Y0001800D02*
X0001800Y0051761D01*
X0060501Y0051761D01*
X0060501Y0001800D01*
X0001800Y0001800D01*
D11*
X0036800Y0011800D03*
X0036800Y0021800D03*
D12*
X0036800Y0031800D03*
X0036800Y0041800D03*
D13*
X0051800Y0041800D03*
X0011800Y0041800D03*
D14*
X0011800Y0031800D03*
X0011800Y0021800D03*
X0011800Y0011800D03*
X0026800Y0011800D03*
X0051800Y0011800D03*
X0051800Y0021800D03*
X0051800Y0031800D03*
X0026800Y0041800D03*
D15*
X0031136Y0044960D02*
X0033773Y0044960D01*
X0033950Y0045137D02*
X0033463Y0044650D01*
X0033058Y0044093D01*
X0032746Y0043479D01*
X0032533Y0042824D01*
X0032425Y0042144D01*
X0032425Y0041800D01*
X0036800Y0041800D01*
X0036800Y0041800D01*
X0036800Y0046175D01*
X0036456Y0046175D01*
X0035776Y0046067D01*
X0035121Y0045854D01*
X0034507Y0045542D01*
X0033950Y0045137D01*
X0032707Y0043361D02*
X0031890Y0043361D01*
X0032100Y0042854D02*
X0031293Y0044802D01*
X0029802Y0046293D01*
X0028191Y0046961D01*
X0047298Y0046961D01*
X0046500Y0046163D01*
X0046500Y0037437D01*
X0047437Y0036500D01*
X0048912Y0036500D01*
X0048217Y0035995D01*
X0047605Y0035383D01*
X0047096Y0034683D01*
X0046703Y0033911D01*
X0046435Y0033088D01*
X0046300Y0032233D01*
X0046300Y0032000D01*
X0051600Y0032000D01*
X0051600Y0031600D01*
X0046300Y0031600D01*
X0046300Y0031367D01*
X0046435Y0030512D01*
X0046703Y0029689D01*
X0047096Y0028917D01*
X0047605Y0028217D01*
X0048217Y0027605D01*
X0048917Y0027096D01*
X0049689Y0026703D01*
X0049744Y0026685D01*
X0048798Y0026293D01*
X0047307Y0024802D01*
X0046500Y0022854D01*
X0046500Y0020746D01*
X0047307Y0018798D01*
X0048798Y0017307D01*
X0050022Y0016800D01*
X0048798Y0016293D01*
X0047307Y0014802D01*
X0046500Y0012854D01*
X0046500Y0010746D01*
X0047307Y0008798D01*
X0048798Y0007307D01*
X0050504Y0006600D01*
X0028096Y0006600D01*
X0029802Y0007307D01*
X0031195Y0008700D01*
X0033041Y0008700D01*
X0034053Y0007688D01*
X0035835Y0006950D01*
X0037765Y0006950D01*
X0039547Y0007688D01*
X0040912Y0009053D01*
X0041650Y0010835D01*
X0041650Y0012765D01*
X0040912Y0014547D01*
X0039547Y0015912D01*
X0037765Y0016650D01*
X0035835Y0016650D01*
X0034053Y0015912D01*
X0032688Y0014547D01*
X0032044Y0012991D01*
X0031293Y0014802D01*
X0029802Y0016293D01*
X0027854Y0017100D01*
X0025746Y0017100D01*
X0023798Y0016293D01*
X0022307Y0014802D01*
X0021500Y0012854D01*
X0021500Y0010746D01*
X0022307Y0008798D01*
X0023798Y0007307D01*
X0025504Y0006600D01*
X0013096Y0006600D01*
X0014802Y0007307D01*
X0016293Y0008798D01*
X0017100Y0010746D01*
X0017100Y0012854D01*
X0016293Y0014802D01*
X0014802Y0016293D01*
X0013578Y0016800D01*
X0014802Y0017307D01*
X0016293Y0018798D01*
X0017100Y0020746D01*
X0017100Y0022854D01*
X0016293Y0024802D01*
X0014802Y0026293D01*
X0013578Y0026800D01*
X0014802Y0027307D01*
X0016293Y0028798D01*
X0016915Y0030300D01*
X0017970Y0030300D01*
X0022800Y0035130D01*
X0022800Y0036030D01*
X0023995Y0037225D01*
X0025746Y0036500D01*
X0027854Y0036500D01*
X0029251Y0037079D01*
X0030300Y0036030D01*
X0030300Y0035130D01*
X0031530Y0033900D01*
X0032676Y0032754D01*
X0032625Y0032630D01*
X0032625Y0030970D01*
X0033261Y0029435D01*
X0034435Y0028261D01*
X0035970Y0027625D01*
X0037630Y0027625D01*
X0039165Y0028261D01*
X0040339Y0029435D01*
X0040975Y0030970D01*
X0040975Y0032630D01*
X0040339Y0034165D01*
X0039165Y0035339D01*
X0037630Y0035975D01*
X0035970Y0035975D01*
X0035563Y0035807D01*
X0034500Y0036870D01*
X0034500Y0037770D01*
X0031931Y0040339D01*
X0032100Y0040746D01*
X0032100Y0042854D01*
X0032100Y0041763D02*
X0032425Y0041763D01*
X0032425Y0041800D02*
X0032425Y0041456D01*
X0032533Y0040776D01*
X0032746Y0040121D01*
X0033058Y0039507D01*
X0033463Y0038950D01*
X0033950Y0038463D01*
X0034507Y0038058D01*
X0035121Y0037746D01*
X0035776Y0037533D01*
X0036456Y0037425D01*
X0036800Y0037425D01*
X0037144Y0037425D01*
X0037824Y0037533D01*
X0038479Y0037746D01*
X0039093Y0038058D01*
X0039650Y0038463D01*
X0040137Y0038950D01*
X0040542Y0039507D01*
X0040854Y0040121D01*
X0041067Y0040776D01*
X0041175Y0041456D01*
X0041175Y0041800D01*
X0041175Y0042144D01*
X0041067Y0042824D01*
X0040854Y0043479D01*
X0040542Y0044093D01*
X0040137Y0044650D01*
X0039650Y0045137D01*
X0039093Y0045542D01*
X0038479Y0045854D01*
X0037824Y0046067D01*
X0037144Y0046175D01*
X0036800Y0046175D01*
X0036800Y0041800D01*
X0041175Y0041800D01*
X0036800Y0041800D01*
X0036800Y0041800D01*
X0036800Y0041800D01*
X0036800Y0037425D01*
X0036800Y0041800D01*
X0036800Y0041800D01*
X0032425Y0041800D01*
X0032732Y0040164D02*
X0032106Y0040164D01*
X0033704Y0038566D02*
X0033847Y0038566D01*
X0034500Y0036967D02*
X0046970Y0036967D01*
X0046500Y0038566D02*
X0039753Y0038566D01*
X0040868Y0040164D02*
X0046500Y0040164D01*
X0046500Y0041763D02*
X0041175Y0041763D01*
X0040893Y0043361D02*
X0046500Y0043361D01*
X0046500Y0044960D02*
X0039827Y0044960D01*
X0036800Y0044960D02*
X0036800Y0044960D01*
X0036800Y0043361D02*
X0036800Y0043361D01*
X0036800Y0041763D02*
X0036800Y0041763D01*
X0036800Y0040164D02*
X0036800Y0040164D01*
X0036800Y0038566D02*
X0036800Y0038566D01*
X0039094Y0035369D02*
X0047594Y0035369D01*
X0046657Y0033770D02*
X0040503Y0033770D01*
X0040975Y0032172D02*
X0046300Y0032172D01*
X0046426Y0030573D02*
X0040811Y0030573D01*
X0039879Y0028975D02*
X0047067Y0028975D01*
X0048532Y0027376D02*
X0014872Y0027376D01*
X0015318Y0025778D02*
X0033919Y0025778D01*
X0034053Y0025912D02*
X0032688Y0024547D01*
X0031950Y0022765D01*
X0031950Y0020835D01*
X0032688Y0019053D01*
X0034053Y0017688D01*
X0035835Y0016950D01*
X0037765Y0016950D01*
X0039547Y0017688D01*
X0040912Y0019053D01*
X0041650Y0020835D01*
X0041650Y0022765D01*
X0040912Y0024547D01*
X0039547Y0025912D01*
X0037765Y0026650D01*
X0035835Y0026650D01*
X0034053Y0025912D01*
X0032536Y0024179D02*
X0016551Y0024179D01*
X0017100Y0022581D02*
X0031950Y0022581D01*
X0031950Y0020982D02*
X0017100Y0020982D01*
X0016536Y0019384D02*
X0032551Y0019384D01*
X0033956Y0017785D02*
X0015280Y0017785D01*
X0014909Y0016187D02*
X0023691Y0016187D01*
X0022218Y0014588D02*
X0016382Y0014588D01*
X0017044Y0012990D02*
X0021556Y0012990D01*
X0021500Y0011391D02*
X0017100Y0011391D01*
X0016705Y0009793D02*
X0021895Y0009793D01*
X0022911Y0008194D02*
X0015689Y0008194D01*
X0029909Y0016187D02*
X0034717Y0016187D01*
X0032729Y0014588D02*
X0031382Y0014588D01*
X0038883Y0016187D02*
X0048691Y0016187D01*
X0048320Y0017785D02*
X0039644Y0017785D01*
X0041049Y0019384D02*
X0047064Y0019384D01*
X0046500Y0020982D02*
X0041650Y0020982D01*
X0041650Y0022581D02*
X0046500Y0022581D01*
X0047049Y0024179D02*
X0041064Y0024179D01*
X0039681Y0025778D02*
X0048282Y0025778D01*
X0047218Y0014588D02*
X0040871Y0014588D01*
X0041557Y0012990D02*
X0046556Y0012990D01*
X0046500Y0011391D02*
X0041650Y0011391D01*
X0041218Y0009793D02*
X0046895Y0009793D01*
X0047911Y0008194D02*
X0040053Y0008194D01*
X0033547Y0008194D02*
X0030689Y0008194D01*
X0033721Y0028975D02*
X0016366Y0028975D01*
X0018243Y0030573D02*
X0032789Y0030573D01*
X0032625Y0032172D02*
X0019842Y0032172D01*
X0021440Y0033770D02*
X0031660Y0033770D01*
X0030300Y0035369D02*
X0022800Y0035369D01*
X0023737Y0036967D02*
X0024618Y0036967D01*
X0020994Y0040164D02*
X0017300Y0040164D01*
X0017300Y0041600D02*
X0012000Y0041600D01*
X0012000Y0042000D01*
X0017300Y0042000D01*
X0017300Y0045737D01*
X0017177Y0046195D01*
X0016940Y0046605D01*
X0016605Y0046940D01*
X0016570Y0046961D01*
X0025409Y0046961D01*
X0023798Y0046293D01*
X0022307Y0044802D01*
X0021500Y0042854D01*
X0021500Y0040746D01*
X0021522Y0040692D01*
X0018600Y0037770D01*
X0018600Y0036870D01*
X0016363Y0034633D01*
X0016293Y0034802D01*
X0014802Y0036293D01*
X0014786Y0036300D01*
X0015737Y0036300D01*
X0016195Y0036423D01*
X0016605Y0036660D01*
X0016940Y0036995D01*
X0017177Y0037405D01*
X0017300Y0037863D01*
X0017300Y0041600D01*
X0017300Y0043361D02*
X0021710Y0043361D01*
X0021500Y0041763D02*
X0012000Y0041763D01*
X0017300Y0044960D02*
X0022464Y0044960D01*
X0024438Y0046558D02*
X0016967Y0046558D01*
X0017300Y0038566D02*
X0019396Y0038566D01*
X0018600Y0036967D02*
X0016913Y0036967D01*
X0017099Y0035369D02*
X0015727Y0035369D01*
X0028982Y0036967D02*
X0029363Y0036967D01*
X0029162Y0046558D02*
X0046896Y0046558D01*
D16*
X0032400Y0036900D02*
X0032400Y0036000D01*
X0036000Y0032400D01*
X0036800Y0031800D01*
X0032400Y0036900D02*
X0027000Y0042300D01*
X0026800Y0041800D01*
X0026100Y0042300D01*
X0020700Y0036900D01*
X0020700Y0036000D01*
X0017100Y0032400D01*
X0012600Y0032400D01*
X0011800Y0031800D01*
X0026800Y0011800D02*
X0027000Y0011700D01*
X0027900Y0010800D01*
X0033300Y0010800D01*
X0034200Y0011700D01*
X0036000Y0011700D01*
X0036800Y0011800D01*
M02*
