G75*
%MOIN*%
%OFA0B0*%
%FSLAX25Y25*%
%IPPOS*%
%LPD*%
%AMOC8*
5,1,8,0,0,1.08239X$1,22.5*
%
%ADD10C,0.00000*%
%ADD11C,0.00400*%
%ADD12R,0.07400X0.07400*%
%ADD13C,0.07400*%
%ADD14C,0.00984*%
%ADD15C,0.01600*%
%ADD16C,0.02781*%
D10*
X0109135Y0001800D02*
X0109135Y0166761D01*
X0332836Y0166761D01*
X0332836Y0001800D01*
X0109135Y0001800D01*
D11*
X0144335Y0042000D02*
X0145870Y0042000D01*
X0145103Y0042000D02*
X0145103Y0046604D01*
X0145870Y0046604D02*
X0144335Y0046604D01*
X0152009Y0044302D02*
X0152776Y0043535D01*
X0154311Y0043535D01*
X0155078Y0042767D01*
X0154311Y0042000D01*
X0152009Y0042000D01*
X0150474Y0041233D02*
X0147405Y0041233D01*
X0152009Y0044302D02*
X0152776Y0045069D01*
X0155078Y0045069D01*
X0156612Y0044302D02*
X0156612Y0042767D01*
X0157380Y0042000D01*
X0158914Y0042000D01*
X0159682Y0042767D01*
X0159682Y0044302D01*
X0158914Y0045069D01*
X0157380Y0045069D01*
X0156612Y0044302D01*
X0161216Y0046604D02*
X0161984Y0046604D01*
X0161984Y0042000D01*
X0162751Y0042000D02*
X0161216Y0042000D01*
X0164286Y0042767D02*
X0165053Y0043535D01*
X0167355Y0043535D01*
X0167355Y0044302D02*
X0166588Y0045069D01*
X0165053Y0045069D01*
X0164286Y0042767D02*
X0165053Y0042000D01*
X0167355Y0042000D01*
X0167355Y0044302D01*
X0168890Y0045069D02*
X0168890Y0042000D01*
X0168890Y0043535D02*
X0170424Y0045069D01*
X0171192Y0045069D01*
X0209335Y0041604D02*
X0209335Y0038535D01*
X0210870Y0037000D01*
X0212405Y0038535D01*
X0212405Y0041604D01*
X0218543Y0041604D02*
X0218543Y0037000D01*
X0220845Y0037000D01*
X0221612Y0037767D01*
X0221612Y0039302D01*
X0220845Y0040069D01*
X0218543Y0040069D01*
X0223147Y0037767D02*
X0223914Y0038535D01*
X0226216Y0038535D01*
X0226216Y0039302D02*
X0226216Y0037000D01*
X0223914Y0037000D01*
X0223147Y0037767D01*
X0223914Y0040069D02*
X0225449Y0040069D01*
X0226216Y0039302D01*
X0227751Y0040069D02*
X0229286Y0040069D01*
X0228518Y0040837D02*
X0228518Y0037767D01*
X0229286Y0037000D01*
X0217009Y0036233D02*
X0213939Y0036233D01*
X0220866Y0062000D02*
X0219331Y0063535D01*
X0220866Y0065069D01*
X0223935Y0065069D01*
X0223935Y0066604D02*
X0219331Y0066604D01*
X0219331Y0068906D01*
X0220099Y0069673D01*
X0223168Y0069673D01*
X0223935Y0068906D01*
X0223935Y0066604D01*
X0221633Y0065069D02*
X0221633Y0062000D01*
X0220866Y0062000D02*
X0223935Y0062000D01*
X0223935Y0071208D02*
X0219331Y0074277D01*
X0219331Y0075812D02*
X0223935Y0075812D01*
X0223935Y0078881D01*
X0223168Y0080416D02*
X0223935Y0081183D01*
X0223935Y0082718D01*
X0223168Y0083485D01*
X0222401Y0083485D01*
X0221633Y0082718D01*
X0221633Y0081950D01*
X0221633Y0082718D02*
X0220866Y0083485D01*
X0220099Y0083485D01*
X0219331Y0082718D01*
X0219331Y0081183D01*
X0220099Y0080416D01*
X0221633Y0085020D02*
X0221633Y0087322D01*
X0222401Y0088089D01*
X0223168Y0088089D01*
X0223935Y0087322D01*
X0223935Y0085787D01*
X0223168Y0085020D01*
X0221633Y0085020D01*
X0220099Y0086554D01*
X0219331Y0088089D01*
X0220099Y0089624D02*
X0219331Y0090391D01*
X0219331Y0091926D01*
X0220099Y0092693D01*
X0220866Y0092693D01*
X0223935Y0089624D01*
X0223935Y0092693D01*
X0223935Y0074277D02*
X0219331Y0071208D01*
X0166984Y0078535D02*
X0163914Y0078535D01*
X0163914Y0079302D02*
X0163914Y0077767D01*
X0164682Y0077000D01*
X0166216Y0077000D01*
X0166984Y0078535D02*
X0166984Y0079302D01*
X0166216Y0080069D01*
X0164682Y0080069D01*
X0163914Y0079302D01*
X0162380Y0080069D02*
X0161612Y0080069D01*
X0160078Y0078535D01*
X0160078Y0080069D02*
X0160078Y0077000D01*
X0158543Y0077767D02*
X0158543Y0079302D01*
X0157776Y0080069D01*
X0155474Y0080069D01*
X0155474Y0081604D02*
X0155474Y0077000D01*
X0157776Y0077000D01*
X0158543Y0077767D01*
X0153939Y0077000D02*
X0152405Y0077000D01*
X0153172Y0077000D02*
X0153172Y0080069D01*
X0152405Y0080069D01*
X0153172Y0081604D02*
X0153172Y0082371D01*
X0150870Y0081604D02*
X0150103Y0080837D01*
X0150103Y0077000D01*
X0149335Y0079302D02*
X0150870Y0079302D01*
X0279335Y0102767D02*
X0280103Y0102000D01*
X0281637Y0102000D01*
X0282405Y0102767D01*
X0282405Y0103535D01*
X0281637Y0104302D01*
X0280103Y0104302D01*
X0279335Y0105069D01*
X0279335Y0105837D01*
X0280103Y0106604D01*
X0281637Y0106604D01*
X0282405Y0105837D01*
X0283939Y0106604D02*
X0283939Y0102000D01*
X0283939Y0104302D02*
X0287009Y0104302D01*
X0287009Y0106604D02*
X0287009Y0102000D01*
X0290078Y0102000D02*
X0290078Y0106604D01*
X0291612Y0106604D02*
X0288543Y0106604D01*
X0293147Y0105837D02*
X0293914Y0106604D01*
X0295449Y0106604D01*
X0296216Y0105837D01*
X0296216Y0105069D01*
X0293147Y0102000D01*
X0296216Y0102000D01*
X0297751Y0102000D02*
X0300820Y0102000D01*
X0299286Y0102000D02*
X0299286Y0106604D01*
X0297751Y0105069D01*
X0297751Y0046604D02*
X0297751Y0044302D01*
X0299286Y0045069D01*
X0300053Y0045069D01*
X0300820Y0044302D01*
X0300820Y0042767D01*
X0300053Y0042000D01*
X0298518Y0042000D01*
X0297751Y0042767D01*
X0296216Y0042000D02*
X0293147Y0042000D01*
X0296216Y0045069D01*
X0296216Y0045837D01*
X0295449Y0046604D01*
X0293914Y0046604D01*
X0293147Y0045837D01*
X0291612Y0045837D02*
X0290845Y0046604D01*
X0289311Y0046604D01*
X0288543Y0045837D01*
X0288543Y0045069D01*
X0289311Y0044302D01*
X0290845Y0044302D01*
X0291612Y0043535D01*
X0291612Y0042767D01*
X0290845Y0042000D01*
X0289311Y0042000D01*
X0288543Y0042767D01*
X0287009Y0044302D02*
X0286241Y0043535D01*
X0283939Y0043535D01*
X0283939Y0042000D02*
X0283939Y0046604D01*
X0286241Y0046604D01*
X0287009Y0045837D01*
X0287009Y0044302D01*
X0282405Y0042000D02*
X0279335Y0042000D01*
X0279335Y0046604D01*
X0297751Y0046604D02*
X0300820Y0046604D01*
X0302355Y0046604D02*
X0302355Y0042000D01*
X0305424Y0042000D02*
X0305424Y0046604D01*
X0305424Y0044302D02*
X0302355Y0044302D01*
D12*
X0314135Y0046800D03*
X0264135Y0046800D03*
X0239135Y0046800D03*
X0199135Y0046800D03*
X0174135Y0046800D03*
X0134135Y0046800D03*
X0134135Y0101800D03*
X0174135Y0101800D03*
X0199135Y0101800D03*
X0239135Y0101800D03*
X0264135Y0101800D03*
X0314135Y0101800D03*
D13*
X0314135Y0091800D03*
X0314135Y0081800D03*
X0314135Y0071800D03*
X0264135Y0071800D03*
X0264135Y0081800D03*
X0264135Y0091800D03*
X0239135Y0091800D03*
X0239135Y0081800D03*
X0239135Y0071800D03*
X0199135Y0071800D03*
X0199135Y0081800D03*
X0199135Y0091800D03*
X0174135Y0091800D03*
X0174135Y0081800D03*
X0174135Y0071800D03*
X0134135Y0071800D03*
X0134135Y0081800D03*
X0134135Y0091800D03*
X0129135Y0126800D03*
X0139135Y0126800D03*
X0149135Y0126800D03*
X0159135Y0126800D03*
X0169135Y0126800D03*
X0179135Y0126800D03*
X0189135Y0126800D03*
X0199135Y0126800D03*
X0209135Y0126800D03*
X0219135Y0126800D03*
X0239135Y0126800D03*
X0249135Y0126800D03*
X0269135Y0126800D03*
X0279135Y0126800D03*
X0294135Y0126800D03*
X0324135Y0126800D03*
X0324135Y0146800D03*
X0294135Y0146800D03*
X0279135Y0146800D03*
X0269135Y0146800D03*
X0249135Y0146800D03*
X0239135Y0146800D03*
X0219135Y0136800D03*
X0209135Y0136800D03*
X0199135Y0136800D03*
X0189135Y0136800D03*
X0179135Y0136800D03*
X0169135Y0136800D03*
X0159135Y0136800D03*
X0149135Y0136800D03*
X0139135Y0136800D03*
X0129135Y0136800D03*
X0134135Y0036800D03*
X0134135Y0026800D03*
X0134135Y0016800D03*
X0174135Y0016800D03*
X0174135Y0026800D03*
X0174135Y0036800D03*
X0199135Y0036800D03*
X0199135Y0026800D03*
X0199135Y0016800D03*
X0239135Y0016800D03*
X0239135Y0026800D03*
X0239135Y0036800D03*
X0264135Y0036800D03*
X0264135Y0026800D03*
X0264135Y0016800D03*
X0314135Y0016800D03*
X0314135Y0026800D03*
X0314135Y0036800D03*
D14*
X0314844Y0037233D01*
X0319765Y0042154D01*
X0319765Y0086446D01*
X0314844Y0091367D01*
X0314135Y0091800D01*
X0314135Y0101800D02*
X0314844Y0102194D01*
X0323702Y0111052D01*
X0323702Y0126800D01*
X0324135Y0126800D01*
X0324687Y0126800D01*
X0324687Y0146485D01*
X0324135Y0146800D01*
X0294135Y0146800D02*
X0293190Y0147469D01*
X0279411Y0147469D01*
X0279135Y0146800D01*
X0269135Y0146800D02*
X0268584Y0147469D01*
X0255789Y0147469D01*
X0250868Y0152391D01*
X0244962Y0152391D01*
X0240041Y0147469D01*
X0239135Y0146800D01*
X0239057Y0147469D01*
X0230198Y0156328D01*
X0161301Y0156328D01*
X0142600Y0137627D01*
X0139647Y0137627D01*
X0139135Y0136800D01*
X0123899Y0140580D02*
X0123899Y0123847D01*
X0133742Y0114005D01*
X0142600Y0114005D01*
X0133742Y0111052D02*
X0152442Y0111052D01*
X0168190Y0126800D01*
X0169135Y0126800D01*
X0179017Y0126800D02*
X0179135Y0126800D01*
X0179017Y0126800D02*
X0154411Y0102194D01*
X0134726Y0102194D01*
X0134135Y0101800D01*
X0128820Y0106131D02*
X0133742Y0111052D01*
X0128820Y0106131D02*
X0128820Y0069713D01*
X0139647Y0058887D01*
X0139647Y0040186D01*
X0171143Y0008690D01*
X0266616Y0008690D01*
X0284332Y0026406D01*
X0313860Y0026406D01*
X0314135Y0026800D01*
X0298112Y0028375D02*
X0283348Y0028375D01*
X0265631Y0010658D01*
X0262679Y0010658D01*
X0244962Y0028375D01*
X0244962Y0041170D01*
X0240041Y0046091D01*
X0239135Y0046800D01*
X0233151Y0043139D02*
X0233151Y0057902D01*
X0180001Y0057902D01*
X0168190Y0069713D01*
X0168190Y0085461D01*
X0174096Y0091367D01*
X0174135Y0091800D01*
X0166222Y0093335D02*
X0174096Y0101209D01*
X0174135Y0101800D01*
X0166222Y0093335D02*
X0166222Y0068729D01*
X0174096Y0060855D01*
X0174096Y0047076D01*
X0174135Y0046800D01*
X0180001Y0042154D02*
X0180001Y0057902D01*
X0174135Y0071800D02*
X0175080Y0072666D01*
X0175080Y0074635D01*
X0184923Y0084477D01*
X0184923Y0122863D01*
X0188860Y0126800D01*
X0189135Y0126800D01*
X0181970Y0120894D02*
X0145553Y0084477D01*
X0145553Y0057902D01*
X0175080Y0037233D02*
X0180001Y0042154D01*
X0175080Y0037233D02*
X0174135Y0036800D01*
X0233151Y0043139D02*
X0239057Y0037233D01*
X0239135Y0036800D01*
X0247915Y0035265D02*
X0258742Y0046091D01*
X0258742Y0130737D01*
X0254805Y0134674D01*
X0254805Y0136643D01*
X0257757Y0137627D02*
X0257757Y0138611D01*
X0256773Y0139595D01*
X0251852Y0139595D01*
X0257757Y0137627D02*
X0268584Y0126800D01*
X0269135Y0126800D01*
X0278427Y0126800D02*
X0279135Y0126800D01*
X0294135Y0126800D01*
X0278427Y0126800D02*
X0278427Y0112036D01*
X0269568Y0103178D01*
X0269568Y0087430D01*
X0264647Y0082509D01*
X0264135Y0081800D01*
X0264647Y0081524D01*
X0269568Y0076603D01*
X0269568Y0034280D01*
X0264647Y0029359D01*
X0264647Y0027391D01*
X0264135Y0026800D01*
X0298112Y0028375D02*
X0313860Y0044123D01*
X0313860Y0046091D01*
X0314135Y0046800D01*
X0256773Y0085461D02*
X0243978Y0072666D01*
X0240041Y0072666D01*
X0239135Y0071800D01*
X0228230Y0066761D02*
X0228230Y0101209D01*
X0247915Y0120894D01*
X0250868Y0120894D01*
X0254805Y0124831D01*
X0254805Y0128769D01*
X0243978Y0139595D01*
X0224293Y0139595D01*
X0221340Y0142548D01*
X0214450Y0142548D01*
X0209529Y0137627D01*
X0209135Y0136800D01*
X0219135Y0136800D02*
X0219372Y0136643D01*
X0242009Y0136643D01*
X0245946Y0132706D01*
X0247915Y0126800D02*
X0249135Y0126800D01*
X0247915Y0126800D02*
X0203624Y0082509D01*
X0199687Y0082509D01*
X0199135Y0081800D01*
X0186891Y0081524D02*
X0186891Y0087430D01*
X0198702Y0099241D01*
X0198702Y0101209D01*
X0199135Y0101800D01*
X0219372Y0126800D02*
X0231183Y0114989D01*
X0245946Y0105146D02*
X0245946Y0079556D01*
X0256773Y0085461D02*
X0256773Y0129753D01*
X0244962Y0141564D01*
X0225277Y0141564D01*
X0212482Y0154359D01*
X0172127Y0154359D01*
X0159332Y0141564D01*
X0159332Y0137627D01*
X0159135Y0136800D01*
X0164253Y0141564D02*
X0166222Y0141564D01*
X0167206Y0142548D01*
X0183938Y0142548D01*
X0188860Y0137627D01*
X0189135Y0136800D01*
X0175080Y0145501D02*
X0174096Y0145501D01*
X0175080Y0145501D02*
X0180986Y0151406D01*
X0131773Y0153375D02*
X0120946Y0142548D01*
X0120946Y0137627D01*
X0117994Y0135658D02*
X0117994Y0144517D01*
X0118978Y0145501D01*
X0117994Y0135658D02*
X0120946Y0132706D01*
X0120946Y0085461D01*
X0219135Y0126800D02*
X0219372Y0126800D01*
X0239135Y0091800D02*
X0239057Y0091367D01*
X0233151Y0085461D01*
X0233151Y0057902D01*
D15*
X0227495Y0059559D02*
X0227556Y0059784D01*
X0227586Y0060016D01*
X0227586Y0063591D01*
X0227598Y0063586D01*
X0228861Y0063586D01*
X0230028Y0064069D01*
X0230921Y0064962D01*
X0231405Y0066129D01*
X0231405Y0067392D01*
X0230921Y0068559D01*
X0230506Y0068974D01*
X0230506Y0100267D01*
X0233651Y0103411D01*
X0233651Y0097361D01*
X0234696Y0096316D01*
X0235994Y0096316D01*
X0235552Y0095995D01*
X0234940Y0095383D01*
X0234431Y0094683D01*
X0234038Y0093911D01*
X0233771Y0093088D01*
X0233635Y0092233D01*
X0233635Y0092000D01*
X0238935Y0092000D01*
X0238935Y0091600D01*
X0233635Y0091600D01*
X0233635Y0091367D01*
X0233771Y0090512D01*
X0234038Y0089689D01*
X0234431Y0088917D01*
X0234940Y0088217D01*
X0235552Y0087605D01*
X0236253Y0087096D01*
X0236852Y0086790D01*
X0236029Y0086449D01*
X0234486Y0084907D01*
X0233651Y0082891D01*
X0233651Y0080709D01*
X0234486Y0078693D01*
X0236029Y0077151D01*
X0236875Y0076800D01*
X0236029Y0076449D01*
X0234486Y0074907D01*
X0233651Y0072891D01*
X0233651Y0070709D01*
X0234486Y0068693D01*
X0236029Y0067151D01*
X0238044Y0066316D01*
X0240226Y0066316D01*
X0242242Y0067151D01*
X0243785Y0068693D01*
X0244487Y0070390D01*
X0244921Y0070390D01*
X0256465Y0081934D01*
X0256465Y0047034D01*
X0247870Y0038439D01*
X0247283Y0038439D01*
X0247238Y0038421D01*
X0247238Y0040227D01*
X0247238Y0042113D01*
X0244620Y0044732D01*
X0244620Y0051239D01*
X0243574Y0052284D01*
X0234696Y0052284D01*
X0233651Y0051239D01*
X0233651Y0042361D01*
X0234696Y0041316D01*
X0235994Y0041316D01*
X0235552Y0040995D01*
X0234940Y0040383D01*
X0234431Y0039683D01*
X0234038Y0038911D01*
X0233771Y0038088D01*
X0233635Y0037233D01*
X0233635Y0037000D01*
X0238935Y0037000D01*
X0238935Y0036600D01*
X0233635Y0036600D01*
X0233635Y0036367D01*
X0233771Y0035512D01*
X0234038Y0034689D01*
X0234431Y0033917D01*
X0234940Y0033217D01*
X0235552Y0032605D01*
X0236253Y0032096D01*
X0236852Y0031790D01*
X0236029Y0031449D01*
X0234486Y0029907D01*
X0233651Y0027891D01*
X0233651Y0025709D01*
X0234486Y0023693D01*
X0236029Y0022151D01*
X0236875Y0021800D01*
X0236029Y0021449D01*
X0234486Y0019907D01*
X0233651Y0017891D01*
X0233651Y0015709D01*
X0234486Y0013693D01*
X0236029Y0012151D01*
X0238044Y0011316D01*
X0240226Y0011316D01*
X0242242Y0012151D01*
X0243785Y0013693D01*
X0244620Y0015709D01*
X0244620Y0017891D01*
X0243785Y0019907D01*
X0242242Y0021449D01*
X0241395Y0021800D01*
X0242242Y0022151D01*
X0243785Y0023693D01*
X0244558Y0025560D01*
X0259152Y0010966D01*
X0172086Y0010966D01*
X0144703Y0038349D01*
X0167390Y0038349D01*
X0167622Y0038380D01*
X0167848Y0038440D01*
X0168064Y0038530D01*
X0168267Y0038647D01*
X0168452Y0038789D01*
X0168618Y0038954D01*
X0168760Y0039140D01*
X0168877Y0039342D01*
X0168966Y0039559D01*
X0169027Y0039784D01*
X0169058Y0040016D01*
X0169058Y0041955D01*
X0169696Y0041316D01*
X0170994Y0041316D01*
X0170552Y0040995D01*
X0169940Y0040383D01*
X0169431Y0039683D01*
X0169038Y0038911D01*
X0168771Y0038088D01*
X0168635Y0037233D01*
X0168635Y0037000D01*
X0173935Y0037000D01*
X0173935Y0036600D01*
X0168635Y0036600D01*
X0168635Y0036367D01*
X0168771Y0035512D01*
X0169038Y0034689D01*
X0169431Y0033917D01*
X0169940Y0033217D01*
X0170552Y0032605D01*
X0171253Y0032096D01*
X0171852Y0031790D01*
X0171029Y0031449D01*
X0169486Y0029907D01*
X0168651Y0027891D01*
X0168651Y0025709D01*
X0169486Y0023693D01*
X0171029Y0022151D01*
X0171875Y0021800D01*
X0171029Y0021449D01*
X0169486Y0019907D01*
X0168651Y0017891D01*
X0168651Y0015709D01*
X0169486Y0013693D01*
X0171029Y0012151D01*
X0173044Y0011316D01*
X0175226Y0011316D01*
X0177242Y0012151D01*
X0178785Y0013693D01*
X0179620Y0015709D01*
X0179620Y0017891D01*
X0178785Y0019907D01*
X0177242Y0021449D01*
X0176395Y0021800D01*
X0177242Y0022151D01*
X0178785Y0023693D01*
X0179620Y0025709D01*
X0179620Y0027891D01*
X0178785Y0029907D01*
X0177242Y0031449D01*
X0176418Y0031790D01*
X0177018Y0032096D01*
X0177718Y0032605D01*
X0178330Y0033217D01*
X0178839Y0033917D01*
X0179232Y0034689D01*
X0179500Y0035512D01*
X0179635Y0036367D01*
X0179635Y0036600D01*
X0174335Y0036600D01*
X0174335Y0037000D01*
X0179635Y0037000D01*
X0179635Y0037233D01*
X0179500Y0038088D01*
X0179232Y0038911D01*
X0178839Y0039683D01*
X0178330Y0040383D01*
X0177718Y0040995D01*
X0177277Y0041316D01*
X0178574Y0041316D01*
X0179620Y0042361D01*
X0179620Y0051239D01*
X0178574Y0052284D01*
X0176372Y0052284D01*
X0176372Y0061798D01*
X0168498Y0069672D01*
X0168498Y0092393D01*
X0168691Y0092585D01*
X0168635Y0092233D01*
X0168635Y0092000D01*
X0173935Y0092000D01*
X0173935Y0091600D01*
X0168635Y0091600D01*
X0168635Y0091367D01*
X0168771Y0090512D01*
X0169038Y0089689D01*
X0169431Y0088917D01*
X0169940Y0088217D01*
X0170552Y0087605D01*
X0171253Y0087096D01*
X0171852Y0086790D01*
X0171029Y0086449D01*
X0169486Y0084907D01*
X0168651Y0082891D01*
X0168651Y0080709D01*
X0169486Y0078693D01*
X0171029Y0077151D01*
X0171875Y0076800D01*
X0171029Y0076449D01*
X0169486Y0074907D01*
X0168651Y0072891D01*
X0168651Y0070709D01*
X0169486Y0068693D01*
X0171029Y0067151D01*
X0173044Y0066316D01*
X0175226Y0066316D01*
X0177242Y0067151D01*
X0178785Y0068693D01*
X0179620Y0070709D01*
X0179620Y0072891D01*
X0178785Y0074907D01*
X0178678Y0075013D01*
X0183963Y0080298D01*
X0184200Y0079726D01*
X0185093Y0078833D01*
X0186260Y0078350D01*
X0187523Y0078350D01*
X0188690Y0078833D01*
X0189583Y0079726D01*
X0190066Y0080893D01*
X0190066Y0082156D01*
X0189583Y0083323D01*
X0189168Y0083738D01*
X0189168Y0086487D01*
X0193651Y0090970D01*
X0193651Y0090709D01*
X0194486Y0088693D01*
X0196029Y0087151D01*
X0196875Y0086800D01*
X0196029Y0086449D01*
X0194486Y0084907D01*
X0193651Y0082891D01*
X0193651Y0080709D01*
X0194486Y0078693D01*
X0196029Y0077151D01*
X0196875Y0076800D01*
X0196029Y0076449D01*
X0194486Y0074907D01*
X0193651Y0072891D01*
X0193651Y0070709D01*
X0194486Y0068693D01*
X0196029Y0067151D01*
X0198044Y0066316D01*
X0200226Y0066316D01*
X0202242Y0067151D01*
X0203785Y0068693D01*
X0204620Y0070709D01*
X0204620Y0072891D01*
X0203785Y0074907D01*
X0202242Y0076449D01*
X0201395Y0076800D01*
X0202242Y0077151D01*
X0203785Y0078693D01*
X0204422Y0080232D01*
X0204566Y0080232D01*
X0215684Y0091350D01*
X0215684Y0060016D01*
X0215715Y0059784D01*
X0215776Y0059559D01*
X0215865Y0059342D01*
X0215982Y0059140D01*
X0216124Y0058954D01*
X0216290Y0058789D01*
X0216475Y0058647D01*
X0216678Y0058530D01*
X0216894Y0058440D01*
X0217120Y0058380D01*
X0217352Y0058349D01*
X0225919Y0058349D01*
X0226151Y0058380D01*
X0226377Y0058440D01*
X0226593Y0058530D01*
X0226795Y0058647D01*
X0226981Y0058789D01*
X0227146Y0058954D01*
X0227289Y0059140D01*
X0227406Y0059342D01*
X0227495Y0059559D01*
X0227407Y0059346D02*
X0256465Y0059346D01*
X0256465Y0057748D02*
X0176372Y0057748D01*
X0176372Y0059346D02*
X0215863Y0059346D01*
X0215684Y0060945D02*
X0176372Y0060945D01*
X0175627Y0062543D02*
X0215684Y0062543D01*
X0215684Y0064142D02*
X0174028Y0064142D01*
X0172430Y0065740D02*
X0215684Y0065740D01*
X0215684Y0067339D02*
X0202430Y0067339D01*
X0203886Y0068937D02*
X0215684Y0068937D01*
X0215684Y0070536D02*
X0204548Y0070536D01*
X0204620Y0072134D02*
X0215684Y0072134D01*
X0215684Y0073733D02*
X0204271Y0073733D01*
X0203360Y0075332D02*
X0215684Y0075332D01*
X0215684Y0076930D02*
X0201709Y0076930D01*
X0203620Y0078529D02*
X0215684Y0078529D01*
X0215684Y0080127D02*
X0204378Y0080127D01*
X0206060Y0081726D02*
X0215684Y0081726D01*
X0215684Y0083324D02*
X0207658Y0083324D01*
X0209257Y0084923D02*
X0215684Y0084923D01*
X0215684Y0086521D02*
X0210855Y0086521D01*
X0212454Y0088120D02*
X0215684Y0088120D01*
X0215684Y0089718D02*
X0214052Y0089718D01*
X0215651Y0091317D02*
X0215684Y0091317D01*
X0230506Y0091317D02*
X0233643Y0091317D01*
X0233743Y0092915D02*
X0230506Y0092915D01*
X0230506Y0094514D02*
X0234345Y0094514D01*
X0235713Y0096112D02*
X0230506Y0096112D01*
X0230506Y0097711D02*
X0233651Y0097711D01*
X0233651Y0099309D02*
X0230506Y0099309D01*
X0231147Y0100908D02*
X0233651Y0100908D01*
X0233651Y0102506D02*
X0232746Y0102506D01*
X0238935Y0091600D02*
X0238935Y0087284D01*
X0239335Y0087284D01*
X0239335Y0091600D01*
X0238935Y0091600D01*
X0238935Y0091317D02*
X0239335Y0091317D01*
X0239335Y0089718D02*
X0238935Y0089718D01*
X0238935Y0088120D02*
X0239335Y0088120D01*
X0236202Y0086521D02*
X0230506Y0086521D01*
X0230506Y0084923D02*
X0234502Y0084923D01*
X0233831Y0083324D02*
X0230506Y0083324D01*
X0230506Y0081726D02*
X0233651Y0081726D01*
X0233892Y0080127D02*
X0230506Y0080127D01*
X0230506Y0078529D02*
X0234651Y0078529D01*
X0236561Y0076930D02*
X0230506Y0076930D01*
X0230506Y0075332D02*
X0234911Y0075332D01*
X0234000Y0073733D02*
X0230506Y0073733D01*
X0230506Y0072134D02*
X0233651Y0072134D01*
X0233723Y0070536D02*
X0230506Y0070536D01*
X0230543Y0068937D02*
X0234385Y0068937D01*
X0235840Y0067339D02*
X0231405Y0067339D01*
X0231244Y0065740D02*
X0256465Y0065740D01*
X0256465Y0064142D02*
X0230101Y0064142D01*
X0227586Y0062543D02*
X0256465Y0062543D01*
X0256465Y0060945D02*
X0227586Y0060945D01*
X0242430Y0067339D02*
X0256465Y0067339D01*
X0256465Y0068937D02*
X0243886Y0068937D01*
X0245067Y0070536D02*
X0256465Y0070536D01*
X0256465Y0072134D02*
X0246665Y0072134D01*
X0248264Y0073733D02*
X0256465Y0073733D01*
X0256465Y0075332D02*
X0249863Y0075332D01*
X0251461Y0076930D02*
X0256465Y0076930D01*
X0256465Y0078529D02*
X0253060Y0078529D01*
X0254658Y0080127D02*
X0256465Y0080127D01*
X0256465Y0081726D02*
X0256257Y0081726D01*
X0269218Y0083860D02*
X0271845Y0086487D01*
X0271845Y0102235D01*
X0275684Y0106075D01*
X0275684Y0100016D01*
X0275715Y0099784D01*
X0275776Y0099559D01*
X0275865Y0099342D01*
X0275982Y0099140D01*
X0276124Y0098954D01*
X0276290Y0098789D01*
X0276475Y0098647D01*
X0276678Y0098530D01*
X0276894Y0098440D01*
X0277120Y0098380D01*
X0277352Y0098349D01*
X0303198Y0098349D01*
X0303430Y0098380D01*
X0303656Y0098440D01*
X0303872Y0098530D01*
X0304075Y0098647D01*
X0304260Y0098789D01*
X0304426Y0098954D01*
X0304568Y0099140D01*
X0304685Y0099342D01*
X0304775Y0099559D01*
X0304835Y0099784D01*
X0304866Y0100016D01*
X0304866Y0108584D01*
X0304835Y0108815D01*
X0304775Y0109041D01*
X0304685Y0109258D01*
X0304568Y0109460D01*
X0304426Y0109646D01*
X0304260Y0109811D01*
X0304075Y0109953D01*
X0303872Y0110070D01*
X0303656Y0110160D01*
X0303430Y0110220D01*
X0303198Y0110251D01*
X0279861Y0110251D01*
X0280703Y0111093D01*
X0280703Y0121513D01*
X0282242Y0122151D01*
X0283785Y0123693D01*
X0284129Y0124524D01*
X0289142Y0124524D01*
X0289486Y0123693D01*
X0291029Y0122151D01*
X0293044Y0121316D01*
X0295226Y0121316D01*
X0297242Y0122151D01*
X0298785Y0123693D01*
X0299620Y0125709D01*
X0299620Y0127891D01*
X0298785Y0129907D01*
X0297242Y0131449D01*
X0295226Y0132284D01*
X0293044Y0132284D01*
X0291029Y0131449D01*
X0289486Y0129907D01*
X0289142Y0129076D01*
X0284129Y0129076D01*
X0283785Y0129907D01*
X0282242Y0131449D01*
X0280226Y0132284D01*
X0278044Y0132284D01*
X0276029Y0131449D01*
X0274486Y0129907D01*
X0274135Y0129060D01*
X0273785Y0129907D01*
X0272242Y0131449D01*
X0270226Y0132284D01*
X0268044Y0132284D01*
X0266825Y0131779D01*
X0260034Y0138570D01*
X0260034Y0139554D01*
X0259050Y0140538D01*
X0257716Y0141872D01*
X0254065Y0141872D01*
X0253650Y0142287D01*
X0252751Y0142659D01*
X0253785Y0143693D01*
X0254535Y0145504D01*
X0254846Y0145193D01*
X0263865Y0145193D01*
X0264486Y0143693D01*
X0266029Y0142151D01*
X0268044Y0141316D01*
X0270226Y0141316D01*
X0272242Y0142151D01*
X0273785Y0143693D01*
X0274135Y0144540D01*
X0274486Y0143693D01*
X0276029Y0142151D01*
X0278044Y0141316D01*
X0280226Y0141316D01*
X0282242Y0142151D01*
X0283785Y0143693D01*
X0284406Y0145193D01*
X0288865Y0145193D01*
X0289486Y0143693D01*
X0291029Y0142151D01*
X0293044Y0141316D01*
X0295226Y0141316D01*
X0297242Y0142151D01*
X0298785Y0143693D01*
X0299620Y0145709D01*
X0299620Y0147891D01*
X0298785Y0149907D01*
X0297242Y0151449D01*
X0295226Y0152284D01*
X0293044Y0152284D01*
X0291029Y0151449D01*
X0289486Y0149907D01*
X0289419Y0149746D01*
X0283851Y0149746D01*
X0283785Y0149907D01*
X0282242Y0151449D01*
X0280226Y0152284D01*
X0278044Y0152284D01*
X0276029Y0151449D01*
X0274486Y0149907D01*
X0274135Y0149060D01*
X0273785Y0149907D01*
X0272242Y0151449D01*
X0270226Y0152284D01*
X0268044Y0152284D01*
X0266029Y0151449D01*
X0264486Y0149907D01*
X0264419Y0149746D01*
X0256732Y0149746D01*
X0253144Y0153333D01*
X0251811Y0154667D01*
X0244019Y0154667D01*
X0241223Y0151871D01*
X0240226Y0152284D01*
X0238044Y0152284D01*
X0237632Y0152113D01*
X0231141Y0158604D01*
X0160358Y0158604D01*
X0159024Y0157270D01*
X0142723Y0140969D01*
X0142242Y0141449D01*
X0140226Y0142284D01*
X0138044Y0142284D01*
X0136029Y0141449D01*
X0134486Y0139907D01*
X0134145Y0139083D01*
X0133839Y0139683D01*
X0133330Y0140383D01*
X0132718Y0140995D01*
X0132018Y0141504D01*
X0131247Y0141897D01*
X0130423Y0142165D01*
X0129568Y0142300D01*
X0129335Y0142300D01*
X0129335Y0137000D01*
X0128935Y0137000D01*
X0128935Y0142300D01*
X0128702Y0142300D01*
X0127847Y0142165D01*
X0127024Y0141897D01*
X0126831Y0141798D01*
X0126591Y0142378D01*
X0125698Y0143271D01*
X0125126Y0143508D01*
X0131818Y0150200D01*
X0132405Y0150200D01*
X0133572Y0150683D01*
X0134465Y0151576D01*
X0134948Y0152743D01*
X0134948Y0154006D01*
X0134465Y0155173D01*
X0133572Y0156066D01*
X0132405Y0156550D01*
X0131142Y0156550D01*
X0129975Y0156066D01*
X0129082Y0155173D01*
X0128598Y0154006D01*
X0128598Y0153419D01*
X0121906Y0146727D01*
X0121669Y0147299D01*
X0120776Y0148192D01*
X0119609Y0148676D01*
X0118346Y0148676D01*
X0117179Y0148192D01*
X0116286Y0147299D01*
X0115803Y0146132D01*
X0115803Y0145545D01*
X0115717Y0145459D01*
X0115717Y0134715D01*
X0117051Y0133382D01*
X0118670Y0131763D01*
X0118670Y0087675D01*
X0118255Y0087260D01*
X0117772Y0086093D01*
X0117772Y0084830D01*
X0118255Y0083663D01*
X0119148Y0082770D01*
X0120315Y0082287D01*
X0121578Y0082287D01*
X0122745Y0082770D01*
X0123638Y0083663D01*
X0124121Y0084830D01*
X0124121Y0086093D01*
X0123638Y0087260D01*
X0123223Y0087675D01*
X0123223Y0121304D01*
X0131999Y0112528D01*
X0131465Y0111995D01*
X0126544Y0107074D01*
X0126544Y0068770D01*
X0127877Y0067437D01*
X0137371Y0057944D01*
X0137371Y0052284D01*
X0129696Y0052284D01*
X0128651Y0051239D01*
X0128651Y0042361D01*
X0129696Y0041316D01*
X0130895Y0041316D01*
X0129486Y0039907D01*
X0128651Y0037891D01*
X0128651Y0035709D01*
X0129486Y0033693D01*
X0131029Y0032151D01*
X0131875Y0031800D01*
X0131029Y0031449D01*
X0129486Y0029907D01*
X0128651Y0027891D01*
X0128651Y0025709D01*
X0129486Y0023693D01*
X0131029Y0022151D01*
X0131875Y0021800D01*
X0131029Y0021449D01*
X0129486Y0019907D01*
X0128651Y0017891D01*
X0128651Y0015709D01*
X0129486Y0013693D01*
X0131029Y0012151D01*
X0133044Y0011316D01*
X0135226Y0011316D01*
X0137242Y0012151D01*
X0138785Y0013693D01*
X0139620Y0015709D01*
X0139620Y0017891D01*
X0138785Y0019907D01*
X0137242Y0021449D01*
X0136395Y0021800D01*
X0137242Y0022151D01*
X0138785Y0023693D01*
X0139620Y0025709D01*
X0139620Y0027891D01*
X0138785Y0029907D01*
X0137242Y0031449D01*
X0136395Y0031800D01*
X0137242Y0032151D01*
X0138785Y0033693D01*
X0139620Y0035709D01*
X0139620Y0036994D01*
X0170014Y0006600D01*
X0113935Y0006600D01*
X0113935Y0161961D01*
X0328036Y0161961D01*
X0328036Y0150655D01*
X0327242Y0151449D01*
X0325226Y0152284D01*
X0323044Y0152284D01*
X0321029Y0151449D01*
X0319486Y0149907D01*
X0318651Y0147891D01*
X0318651Y0145709D01*
X0319486Y0143693D01*
X0321029Y0142151D01*
X0322410Y0141578D01*
X0322410Y0132022D01*
X0321029Y0131449D01*
X0319486Y0129907D01*
X0318651Y0127891D01*
X0318651Y0125709D01*
X0319486Y0123693D01*
X0321029Y0122151D01*
X0321426Y0121986D01*
X0321426Y0111995D01*
X0316715Y0107284D01*
X0309696Y0107284D01*
X0308651Y0106239D01*
X0308651Y0097361D01*
X0309696Y0096316D01*
X0310994Y0096316D01*
X0310552Y0095995D01*
X0309940Y0095383D01*
X0309431Y0094683D01*
X0309038Y0093911D01*
X0308771Y0093088D01*
X0308635Y0092233D01*
X0308635Y0092000D01*
X0313935Y0092000D01*
X0313935Y0091600D01*
X0308635Y0091600D01*
X0308635Y0091367D01*
X0308771Y0090512D01*
X0309038Y0089689D01*
X0309431Y0088917D01*
X0309940Y0088217D01*
X0310552Y0087605D01*
X0311253Y0087096D01*
X0311852Y0086790D01*
X0311029Y0086449D01*
X0309486Y0084907D01*
X0308651Y0082891D01*
X0308651Y0080709D01*
X0309486Y0078693D01*
X0311029Y0077151D01*
X0311875Y0076800D01*
X0311029Y0076449D01*
X0309486Y0074907D01*
X0308651Y0072891D01*
X0308651Y0070709D01*
X0309486Y0068693D01*
X0311029Y0067151D01*
X0313044Y0066316D01*
X0315226Y0066316D01*
X0317242Y0067151D01*
X0318785Y0068693D01*
X0319620Y0070709D01*
X0319620Y0072891D01*
X0318785Y0074907D01*
X0317242Y0076449D01*
X0316395Y0076800D01*
X0317242Y0077151D01*
X0318785Y0078693D01*
X0319620Y0080709D01*
X0319620Y0082891D01*
X0318785Y0084907D01*
X0317242Y0086449D01*
X0316418Y0086790D01*
X0317018Y0087096D01*
X0317718Y0087605D01*
X0318330Y0088217D01*
X0318839Y0088917D01*
X0319232Y0089689D01*
X0319500Y0090512D01*
X0319635Y0091367D01*
X0319635Y0091600D01*
X0314335Y0091600D01*
X0314335Y0092000D01*
X0319635Y0092000D01*
X0319635Y0092233D01*
X0319500Y0093088D01*
X0319232Y0093911D01*
X0318839Y0094683D01*
X0318330Y0095383D01*
X0317718Y0095995D01*
X0317277Y0096316D01*
X0318574Y0096316D01*
X0319620Y0097361D01*
X0319620Y0103750D01*
X0325979Y0110109D01*
X0325979Y0121627D01*
X0327242Y0122151D01*
X0328036Y0122945D01*
X0328036Y0006600D01*
X0267745Y0006600D01*
X0268892Y0007747D01*
X0285275Y0024130D01*
X0309305Y0024130D01*
X0309486Y0023693D01*
X0311029Y0022151D01*
X0311875Y0021800D01*
X0311029Y0021449D01*
X0309486Y0019907D01*
X0308651Y0017891D01*
X0308651Y0015709D01*
X0309486Y0013693D01*
X0311029Y0012151D01*
X0313044Y0011316D01*
X0315226Y0011316D01*
X0317242Y0012151D01*
X0318785Y0013693D01*
X0319620Y0015709D01*
X0319620Y0017891D01*
X0318785Y0019907D01*
X0317242Y0021449D01*
X0316395Y0021800D01*
X0317242Y0022151D01*
X0318785Y0023693D01*
X0319620Y0025709D01*
X0319620Y0027891D01*
X0318785Y0029907D01*
X0317242Y0031449D01*
X0316418Y0031790D01*
X0317018Y0032096D01*
X0317718Y0032605D01*
X0318330Y0033217D01*
X0318839Y0033917D01*
X0319232Y0034689D01*
X0319500Y0035512D01*
X0319635Y0036367D01*
X0319635Y0036600D01*
X0314335Y0036600D01*
X0314335Y0037000D01*
X0319635Y0037000D01*
X0319635Y0037233D01*
X0319500Y0038088D01*
X0319232Y0038911D01*
X0318839Y0039683D01*
X0318330Y0040383D01*
X0317718Y0040995D01*
X0317277Y0041316D01*
X0318574Y0041316D01*
X0319620Y0042361D01*
X0319620Y0051239D01*
X0318574Y0052284D01*
X0309696Y0052284D01*
X0308651Y0051239D01*
X0308651Y0049778D01*
X0308618Y0049811D01*
X0308432Y0049953D01*
X0308230Y0050070D01*
X0308014Y0050160D01*
X0307788Y0050220D01*
X0307556Y0050251D01*
X0277352Y0050251D01*
X0277120Y0050220D01*
X0276894Y0050160D01*
X0276678Y0050070D01*
X0276475Y0049953D01*
X0276290Y0049811D01*
X0276124Y0049646D01*
X0275982Y0049460D01*
X0275865Y0049258D01*
X0275776Y0049041D01*
X0275715Y0048815D01*
X0275684Y0048584D01*
X0275684Y0040016D01*
X0275715Y0039784D01*
X0275776Y0039559D01*
X0275865Y0039342D01*
X0275982Y0039140D01*
X0276124Y0038954D01*
X0276290Y0038789D01*
X0276475Y0038647D01*
X0276678Y0038530D01*
X0276894Y0038440D01*
X0277120Y0038380D01*
X0277352Y0038349D01*
X0304867Y0038349D01*
X0297169Y0030651D01*
X0282405Y0030651D01*
X0269620Y0017866D01*
X0269620Y0017891D01*
X0268785Y0019907D01*
X0267242Y0021449D01*
X0266395Y0021800D01*
X0267242Y0022151D01*
X0268785Y0023693D01*
X0269620Y0025709D01*
X0269620Y0027891D01*
X0268785Y0029907D01*
X0268599Y0030092D01*
X0270511Y0032004D01*
X0271845Y0033337D01*
X0271845Y0077546D01*
X0269345Y0080046D01*
X0269620Y0080709D01*
X0269620Y0082891D01*
X0269218Y0083860D01*
X0269440Y0083324D02*
X0308831Y0083324D01*
X0308651Y0081726D02*
X0269620Y0081726D01*
X0269378Y0080127D02*
X0308892Y0080127D01*
X0309651Y0078529D02*
X0270862Y0078529D01*
X0271845Y0076930D02*
X0311561Y0076930D01*
X0309911Y0075332D02*
X0271845Y0075332D01*
X0271845Y0073733D02*
X0309000Y0073733D01*
X0308651Y0072134D02*
X0271845Y0072134D01*
X0271845Y0070536D02*
X0308723Y0070536D01*
X0309385Y0068937D02*
X0271845Y0068937D01*
X0271845Y0067339D02*
X0310840Y0067339D01*
X0317430Y0067339D02*
X0328036Y0067339D01*
X0328036Y0068937D02*
X0318886Y0068937D01*
X0319548Y0070536D02*
X0328036Y0070536D01*
X0328036Y0072134D02*
X0319620Y0072134D01*
X0319271Y0073733D02*
X0328036Y0073733D01*
X0328036Y0075332D02*
X0318360Y0075332D01*
X0316709Y0076930D02*
X0328036Y0076930D01*
X0328036Y0078529D02*
X0318620Y0078529D01*
X0319378Y0080127D02*
X0328036Y0080127D01*
X0328036Y0081726D02*
X0319620Y0081726D01*
X0319440Y0083324D02*
X0328036Y0083324D01*
X0328036Y0084923D02*
X0318769Y0084923D01*
X0317069Y0086521D02*
X0328036Y0086521D01*
X0328036Y0088120D02*
X0318233Y0088120D01*
X0319242Y0089718D02*
X0328036Y0089718D01*
X0328036Y0091317D02*
X0319627Y0091317D01*
X0319527Y0092915D02*
X0328036Y0092915D01*
X0328036Y0094514D02*
X0318925Y0094514D01*
X0317557Y0096112D02*
X0328036Y0096112D01*
X0328036Y0097711D02*
X0319620Y0097711D01*
X0319620Y0099309D02*
X0328036Y0099309D01*
X0328036Y0100908D02*
X0319620Y0100908D01*
X0319620Y0102506D02*
X0328036Y0102506D01*
X0328036Y0104105D02*
X0319974Y0104105D01*
X0321573Y0105703D02*
X0328036Y0105703D01*
X0328036Y0107302D02*
X0323171Y0107302D01*
X0324770Y0108900D02*
X0328036Y0108900D01*
X0328036Y0110499D02*
X0325979Y0110499D01*
X0325979Y0112097D02*
X0328036Y0112097D01*
X0328036Y0113696D02*
X0325979Y0113696D01*
X0325979Y0115294D02*
X0328036Y0115294D01*
X0328036Y0116893D02*
X0325979Y0116893D01*
X0325979Y0118491D02*
X0328036Y0118491D01*
X0328036Y0120090D02*
X0325979Y0120090D01*
X0326126Y0121688D02*
X0328036Y0121688D01*
X0321426Y0121688D02*
X0296126Y0121688D01*
X0298378Y0123287D02*
X0319893Y0123287D01*
X0318992Y0124885D02*
X0299278Y0124885D01*
X0299620Y0126484D02*
X0318651Y0126484D01*
X0318730Y0128082D02*
X0299540Y0128082D01*
X0298878Y0129681D02*
X0319393Y0129681D01*
X0320859Y0131279D02*
X0297412Y0131279D01*
X0290859Y0131279D02*
X0282412Y0131279D01*
X0283878Y0129681D02*
X0289393Y0129681D01*
X0289893Y0123287D02*
X0283378Y0123287D01*
X0281126Y0121688D02*
X0292145Y0121688D01*
X0280703Y0120090D02*
X0321426Y0120090D01*
X0321426Y0118491D02*
X0280703Y0118491D01*
X0280703Y0116893D02*
X0321426Y0116893D01*
X0321426Y0115294D02*
X0280703Y0115294D01*
X0280703Y0113696D02*
X0321426Y0113696D01*
X0321426Y0112097D02*
X0280703Y0112097D01*
X0280109Y0110499D02*
X0319930Y0110499D01*
X0318331Y0108900D02*
X0304813Y0108900D01*
X0304866Y0107302D02*
X0316733Y0107302D01*
X0308651Y0105703D02*
X0304866Y0105703D01*
X0304866Y0104105D02*
X0308651Y0104105D01*
X0308651Y0102506D02*
X0304866Y0102506D01*
X0304866Y0100908D02*
X0308651Y0100908D01*
X0308651Y0099309D02*
X0304666Y0099309D01*
X0308651Y0097711D02*
X0271845Y0097711D01*
X0271845Y0099309D02*
X0275884Y0099309D01*
X0275684Y0100908D02*
X0271845Y0100908D01*
X0272116Y0102506D02*
X0275684Y0102506D01*
X0275684Y0104105D02*
X0273714Y0104105D01*
X0275313Y0105703D02*
X0275684Y0105703D01*
X0271845Y0096112D02*
X0310713Y0096112D01*
X0309345Y0094514D02*
X0271845Y0094514D01*
X0271845Y0092915D02*
X0308743Y0092915D01*
X0308643Y0091317D02*
X0271845Y0091317D01*
X0271845Y0089718D02*
X0309029Y0089718D01*
X0310038Y0088120D02*
X0271845Y0088120D01*
X0271845Y0086521D02*
X0311202Y0086521D01*
X0309502Y0084923D02*
X0270280Y0084923D01*
X0235038Y0088120D02*
X0230506Y0088120D01*
X0230506Y0089718D02*
X0234029Y0089718D01*
X0196202Y0086521D02*
X0189202Y0086521D01*
X0189168Y0084923D02*
X0194502Y0084923D01*
X0193831Y0083324D02*
X0189581Y0083324D01*
X0190066Y0081726D02*
X0193651Y0081726D01*
X0193892Y0080127D02*
X0189749Y0080127D01*
X0187955Y0078529D02*
X0194651Y0078529D01*
X0196561Y0076930D02*
X0180595Y0076930D01*
X0182193Y0078529D02*
X0185828Y0078529D01*
X0184034Y0080127D02*
X0183792Y0080127D01*
X0179620Y0082393D02*
X0182646Y0085420D01*
X0182646Y0117738D01*
X0182602Y0117720D01*
X0182014Y0117720D01*
X0171579Y0107284D01*
X0178574Y0107284D01*
X0179620Y0106239D01*
X0179620Y0097361D01*
X0178574Y0096316D01*
X0177277Y0096316D01*
X0177718Y0095995D01*
X0178330Y0095383D01*
X0178839Y0094683D01*
X0179232Y0093911D01*
X0179500Y0093088D01*
X0179635Y0092233D01*
X0179635Y0092000D01*
X0174335Y0092000D01*
X0174335Y0091600D01*
X0174335Y0087284D01*
X0173935Y0087284D01*
X0173935Y0091600D01*
X0174335Y0091600D01*
X0179635Y0091600D01*
X0179635Y0091367D01*
X0179500Y0090512D01*
X0179232Y0089689D01*
X0178839Y0088917D01*
X0178330Y0088217D01*
X0177718Y0087605D01*
X0177018Y0087096D01*
X0176418Y0086790D01*
X0177242Y0086449D01*
X0178785Y0084907D01*
X0179620Y0082891D01*
X0179620Y0082393D01*
X0179440Y0083324D02*
X0180550Y0083324D01*
X0182149Y0084923D02*
X0178769Y0084923D01*
X0177069Y0086521D02*
X0182646Y0086521D01*
X0182646Y0088120D02*
X0178233Y0088120D01*
X0179242Y0089718D02*
X0182646Y0089718D01*
X0182646Y0091317D02*
X0179627Y0091317D01*
X0179527Y0092915D02*
X0182646Y0092915D01*
X0182646Y0094514D02*
X0178925Y0094514D01*
X0177557Y0096112D02*
X0182646Y0096112D01*
X0182646Y0097711D02*
X0179620Y0097711D01*
X0179620Y0099309D02*
X0182646Y0099309D01*
X0182646Y0100908D02*
X0179620Y0100908D01*
X0179620Y0102506D02*
X0182646Y0102506D01*
X0182646Y0104105D02*
X0179620Y0104105D01*
X0179620Y0105703D02*
X0182646Y0105703D01*
X0182646Y0107302D02*
X0171597Y0107302D01*
X0173195Y0108900D02*
X0182646Y0108900D01*
X0182646Y0110499D02*
X0174794Y0110499D01*
X0176392Y0112097D02*
X0182646Y0112097D01*
X0182646Y0113696D02*
X0177991Y0113696D01*
X0179589Y0115294D02*
X0182646Y0115294D01*
X0182646Y0116893D02*
X0181188Y0116893D01*
X0131568Y0112097D02*
X0123223Y0112097D01*
X0123223Y0110499D02*
X0129969Y0110499D01*
X0128371Y0108900D02*
X0123223Y0108900D01*
X0123223Y0107302D02*
X0126772Y0107302D01*
X0126544Y0105703D02*
X0123223Y0105703D01*
X0123223Y0104105D02*
X0126544Y0104105D01*
X0126544Y0102506D02*
X0123223Y0102506D01*
X0123223Y0100908D02*
X0126544Y0100908D01*
X0126544Y0099309D02*
X0123223Y0099309D01*
X0123223Y0097711D02*
X0126544Y0097711D01*
X0126544Y0096112D02*
X0123223Y0096112D01*
X0123223Y0094514D02*
X0126544Y0094514D01*
X0126544Y0092915D02*
X0123223Y0092915D01*
X0123223Y0091317D02*
X0126544Y0091317D01*
X0126544Y0089718D02*
X0123223Y0089718D01*
X0123223Y0088120D02*
X0126544Y0088120D01*
X0126544Y0086521D02*
X0123944Y0086521D01*
X0124121Y0084923D02*
X0126544Y0084923D01*
X0126544Y0083324D02*
X0123299Y0083324D01*
X0126544Y0081726D02*
X0113935Y0081726D01*
X0113935Y0083324D02*
X0118594Y0083324D01*
X0117772Y0084923D02*
X0113935Y0084923D01*
X0113935Y0086521D02*
X0117949Y0086521D01*
X0118670Y0088120D02*
X0113935Y0088120D01*
X0113935Y0089718D02*
X0118670Y0089718D01*
X0118670Y0091317D02*
X0113935Y0091317D01*
X0113935Y0092915D02*
X0118670Y0092915D01*
X0118670Y0094514D02*
X0113935Y0094514D01*
X0113935Y0096112D02*
X0118670Y0096112D01*
X0118670Y0097711D02*
X0113935Y0097711D01*
X0113935Y0099309D02*
X0118670Y0099309D01*
X0118670Y0100908D02*
X0113935Y0100908D01*
X0113935Y0102506D02*
X0118670Y0102506D01*
X0118670Y0104105D02*
X0113935Y0104105D01*
X0113935Y0105703D02*
X0118670Y0105703D01*
X0118670Y0107302D02*
X0113935Y0107302D01*
X0113935Y0108900D02*
X0118670Y0108900D01*
X0118670Y0110499D02*
X0113935Y0110499D01*
X0113935Y0112097D02*
X0118670Y0112097D01*
X0118670Y0113696D02*
X0113935Y0113696D01*
X0113935Y0115294D02*
X0118670Y0115294D01*
X0118670Y0116893D02*
X0113935Y0116893D01*
X0113935Y0118491D02*
X0118670Y0118491D01*
X0118670Y0120090D02*
X0113935Y0120090D01*
X0113935Y0121688D02*
X0118670Y0121688D01*
X0118670Y0123287D02*
X0113935Y0123287D01*
X0113935Y0124885D02*
X0118670Y0124885D01*
X0118670Y0126484D02*
X0113935Y0126484D01*
X0113935Y0128082D02*
X0118670Y0128082D01*
X0118670Y0129681D02*
X0113935Y0129681D01*
X0113935Y0131279D02*
X0118670Y0131279D01*
X0117555Y0132878D02*
X0113935Y0132878D01*
X0113935Y0134476D02*
X0115956Y0134476D01*
X0115717Y0136075D02*
X0113935Y0136075D01*
X0113935Y0137673D02*
X0115717Y0137673D01*
X0115717Y0139272D02*
X0113935Y0139272D01*
X0113935Y0140870D02*
X0115717Y0140870D01*
X0115717Y0142469D02*
X0113935Y0142469D01*
X0113935Y0144068D02*
X0115717Y0144068D01*
X0115803Y0145666D02*
X0113935Y0145666D01*
X0113935Y0147265D02*
X0116272Y0147265D01*
X0113935Y0148863D02*
X0124042Y0148863D01*
X0122444Y0147265D02*
X0121684Y0147265D01*
X0125641Y0150462D02*
X0113935Y0150462D01*
X0113935Y0152060D02*
X0127239Y0152060D01*
X0128598Y0153659D02*
X0113935Y0153659D01*
X0113935Y0155257D02*
X0129166Y0155257D01*
X0134381Y0155257D02*
X0157011Y0155257D01*
X0155412Y0153659D02*
X0134948Y0153659D01*
X0134665Y0152060D02*
X0153814Y0152060D01*
X0152215Y0150462D02*
X0133036Y0150462D01*
X0130481Y0148863D02*
X0150617Y0148863D01*
X0149018Y0147265D02*
X0128882Y0147265D01*
X0127284Y0145666D02*
X0147420Y0145666D01*
X0145821Y0144068D02*
X0125685Y0144068D01*
X0126499Y0142469D02*
X0144223Y0142469D01*
X0135450Y0140870D02*
X0132843Y0140870D01*
X0134049Y0139272D02*
X0134223Y0139272D01*
X0129335Y0139272D02*
X0128935Y0139272D01*
X0128935Y0140870D02*
X0129335Y0140870D01*
X0129335Y0137673D02*
X0128935Y0137673D01*
X0124437Y0120090D02*
X0123223Y0120090D01*
X0123223Y0118491D02*
X0126036Y0118491D01*
X0127634Y0116893D02*
X0123223Y0116893D01*
X0123223Y0115294D02*
X0129233Y0115294D01*
X0130831Y0113696D02*
X0123223Y0113696D01*
X0168498Y0091317D02*
X0168643Y0091317D01*
X0168498Y0089718D02*
X0169029Y0089718D01*
X0168498Y0088120D02*
X0170038Y0088120D01*
X0171202Y0086521D02*
X0168498Y0086521D01*
X0168498Y0084923D02*
X0169502Y0084923D01*
X0168831Y0083324D02*
X0168498Y0083324D01*
X0168498Y0081726D02*
X0168651Y0081726D01*
X0168498Y0080127D02*
X0168892Y0080127D01*
X0168498Y0078529D02*
X0169651Y0078529D01*
X0168498Y0076930D02*
X0171561Y0076930D01*
X0169911Y0075332D02*
X0168498Y0075332D01*
X0168498Y0073733D02*
X0169000Y0073733D01*
X0168651Y0072134D02*
X0168498Y0072134D01*
X0168498Y0070536D02*
X0168723Y0070536D01*
X0169233Y0068937D02*
X0169385Y0068937D01*
X0170831Y0067339D02*
X0170840Y0067339D01*
X0177430Y0067339D02*
X0195840Y0067339D01*
X0194385Y0068937D02*
X0178886Y0068937D01*
X0179548Y0070536D02*
X0193723Y0070536D01*
X0193651Y0072134D02*
X0179620Y0072134D01*
X0179271Y0073733D02*
X0194000Y0073733D01*
X0194911Y0075332D02*
X0178996Y0075332D01*
X0174335Y0088120D02*
X0173935Y0088120D01*
X0173935Y0089718D02*
X0174335Y0089718D01*
X0174335Y0091317D02*
X0173935Y0091317D01*
X0190800Y0088120D02*
X0195060Y0088120D01*
X0194062Y0089718D02*
X0192399Y0089718D01*
X0131173Y0064142D02*
X0113935Y0064142D01*
X0113935Y0065740D02*
X0129574Y0065740D01*
X0127976Y0067339D02*
X0113935Y0067339D01*
X0113935Y0068937D02*
X0126544Y0068937D01*
X0126544Y0070536D02*
X0113935Y0070536D01*
X0113935Y0072134D02*
X0126544Y0072134D01*
X0126544Y0073733D02*
X0113935Y0073733D01*
X0113935Y0075332D02*
X0126544Y0075332D01*
X0126544Y0076930D02*
X0113935Y0076930D01*
X0113935Y0078529D02*
X0126544Y0078529D01*
X0126544Y0080127D02*
X0113935Y0080127D01*
X0113935Y0062543D02*
X0132771Y0062543D01*
X0134370Y0060945D02*
X0113935Y0060945D01*
X0113935Y0059346D02*
X0135968Y0059346D01*
X0137371Y0057748D02*
X0113935Y0057748D01*
X0113935Y0056149D02*
X0137371Y0056149D01*
X0137371Y0054551D02*
X0113935Y0054551D01*
X0113935Y0052952D02*
X0137371Y0052952D01*
X0128766Y0051354D02*
X0113935Y0051354D01*
X0113935Y0049755D02*
X0128651Y0049755D01*
X0128651Y0048157D02*
X0113935Y0048157D01*
X0113935Y0046558D02*
X0128651Y0046558D01*
X0128651Y0044960D02*
X0113935Y0044960D01*
X0113935Y0043361D02*
X0128651Y0043361D01*
X0129249Y0041763D02*
X0113935Y0041763D01*
X0113935Y0040164D02*
X0129744Y0040164D01*
X0128931Y0038566D02*
X0113935Y0038566D01*
X0113935Y0036967D02*
X0128651Y0036967D01*
X0128792Y0035369D02*
X0113935Y0035369D01*
X0113935Y0033770D02*
X0129454Y0033770D01*
X0131008Y0032172D02*
X0113935Y0032172D01*
X0113935Y0030573D02*
X0130153Y0030573D01*
X0129100Y0028975D02*
X0113935Y0028975D01*
X0113935Y0027376D02*
X0128651Y0027376D01*
X0128651Y0025778D02*
X0113935Y0025778D01*
X0113935Y0024179D02*
X0129285Y0024179D01*
X0130599Y0022581D02*
X0113935Y0022581D01*
X0113935Y0020982D02*
X0130562Y0020982D01*
X0129269Y0019384D02*
X0113935Y0019384D01*
X0113935Y0017785D02*
X0128651Y0017785D01*
X0128651Y0016187D02*
X0113935Y0016187D01*
X0113935Y0014588D02*
X0129115Y0014588D01*
X0130190Y0012990D02*
X0113935Y0012990D01*
X0113935Y0011391D02*
X0132863Y0011391D01*
X0135408Y0011391D02*
X0165223Y0011391D01*
X0166821Y0009793D02*
X0113935Y0009793D01*
X0113935Y0008194D02*
X0168420Y0008194D01*
X0171661Y0011391D02*
X0172863Y0011391D01*
X0175408Y0011391D02*
X0197863Y0011391D01*
X0198044Y0011316D02*
X0200226Y0011316D01*
X0202242Y0012151D01*
X0203785Y0013693D01*
X0204620Y0015709D01*
X0204620Y0017891D01*
X0203785Y0019907D01*
X0202242Y0021449D01*
X0201395Y0021800D01*
X0202242Y0022151D01*
X0203785Y0023693D01*
X0204620Y0025709D01*
X0204620Y0027891D01*
X0203785Y0029907D01*
X0202242Y0031449D01*
X0201395Y0031800D01*
X0202242Y0032151D01*
X0203785Y0033693D01*
X0204620Y0035709D01*
X0204620Y0037891D01*
X0203785Y0039907D01*
X0202375Y0041316D01*
X0203574Y0041316D01*
X0204620Y0042361D01*
X0204620Y0051239D01*
X0203574Y0052284D01*
X0194696Y0052284D01*
X0193651Y0051239D01*
X0193651Y0042361D01*
X0194696Y0041316D01*
X0195895Y0041316D01*
X0194486Y0039907D01*
X0193651Y0037891D01*
X0193651Y0035709D01*
X0194486Y0033693D01*
X0196029Y0032151D01*
X0196875Y0031800D01*
X0196029Y0031449D01*
X0194486Y0029907D01*
X0193651Y0027891D01*
X0193651Y0025709D01*
X0194486Y0023693D01*
X0196029Y0022151D01*
X0196875Y0021800D01*
X0196029Y0021449D01*
X0194486Y0019907D01*
X0193651Y0017891D01*
X0193651Y0015709D01*
X0194486Y0013693D01*
X0196029Y0012151D01*
X0198044Y0011316D01*
X0200408Y0011391D02*
X0237863Y0011391D01*
X0240408Y0011391D02*
X0258727Y0011391D01*
X0257128Y0012990D02*
X0243081Y0012990D01*
X0244155Y0014588D02*
X0255530Y0014588D01*
X0253931Y0016187D02*
X0244620Y0016187D01*
X0244620Y0017785D02*
X0252333Y0017785D01*
X0250734Y0019384D02*
X0244001Y0019384D01*
X0242709Y0020982D02*
X0249135Y0020982D01*
X0247537Y0022581D02*
X0242672Y0022581D01*
X0243986Y0024179D02*
X0245938Y0024179D01*
X0235599Y0022581D02*
X0202672Y0022581D01*
X0202709Y0020982D02*
X0235562Y0020982D01*
X0234269Y0019384D02*
X0204001Y0019384D01*
X0204620Y0017785D02*
X0233651Y0017785D01*
X0233651Y0016187D02*
X0204620Y0016187D01*
X0204155Y0014588D02*
X0234115Y0014588D01*
X0235190Y0012990D02*
X0203081Y0012990D01*
X0195190Y0012990D02*
X0178081Y0012990D01*
X0179155Y0014588D02*
X0194115Y0014588D01*
X0193651Y0016187D02*
X0179620Y0016187D01*
X0179620Y0017785D02*
X0193651Y0017785D01*
X0194269Y0019384D02*
X0179001Y0019384D01*
X0177709Y0020982D02*
X0195562Y0020982D01*
X0195599Y0022581D02*
X0177672Y0022581D01*
X0178986Y0024179D02*
X0194285Y0024179D01*
X0193651Y0025778D02*
X0179620Y0025778D01*
X0179620Y0027376D02*
X0193651Y0027376D01*
X0194100Y0028975D02*
X0179171Y0028975D01*
X0178118Y0030573D02*
X0195153Y0030573D01*
X0196008Y0032172D02*
X0177122Y0032172D01*
X0178732Y0033770D02*
X0194454Y0033770D01*
X0193792Y0035369D02*
X0179453Y0035369D01*
X0179345Y0038566D02*
X0193931Y0038566D01*
X0193651Y0036967D02*
X0174335Y0036967D01*
X0173935Y0036967D02*
X0146085Y0036967D01*
X0147684Y0035369D02*
X0168817Y0035369D01*
X0169538Y0033770D02*
X0149282Y0033770D01*
X0150881Y0032172D02*
X0171148Y0032172D01*
X0170153Y0030573D02*
X0152479Y0030573D01*
X0154078Y0028975D02*
X0169100Y0028975D01*
X0168651Y0027376D02*
X0155676Y0027376D01*
X0157275Y0025778D02*
X0168651Y0025778D01*
X0169285Y0024179D02*
X0158873Y0024179D01*
X0160472Y0022581D02*
X0170599Y0022581D01*
X0170562Y0020982D02*
X0162070Y0020982D01*
X0163669Y0019384D02*
X0169269Y0019384D01*
X0168651Y0017785D02*
X0165267Y0017785D01*
X0166866Y0016187D02*
X0168651Y0016187D01*
X0168464Y0014588D02*
X0169115Y0014588D01*
X0170063Y0012990D02*
X0170190Y0012990D01*
X0163624Y0012990D02*
X0138081Y0012990D01*
X0139155Y0014588D02*
X0162026Y0014588D01*
X0160427Y0016187D02*
X0139620Y0016187D01*
X0139620Y0017785D02*
X0158829Y0017785D01*
X0157230Y0019384D02*
X0139001Y0019384D01*
X0137709Y0020982D02*
X0155632Y0020982D01*
X0154033Y0022581D02*
X0137672Y0022581D01*
X0138986Y0024179D02*
X0152435Y0024179D01*
X0150836Y0025778D02*
X0139620Y0025778D01*
X0139620Y0027376D02*
X0149238Y0027376D01*
X0147639Y0028975D02*
X0139171Y0028975D01*
X0138118Y0030573D02*
X0146041Y0030573D01*
X0144442Y0032172D02*
X0137263Y0032172D01*
X0138816Y0033770D02*
X0142843Y0033770D01*
X0141245Y0035369D02*
X0139479Y0035369D01*
X0139620Y0036967D02*
X0139646Y0036967D01*
X0168127Y0038566D02*
X0168926Y0038566D01*
X0169058Y0040164D02*
X0169781Y0040164D01*
X0169249Y0041763D02*
X0169058Y0041763D01*
X0178489Y0040164D02*
X0194744Y0040164D01*
X0194249Y0041763D02*
X0179021Y0041763D01*
X0179620Y0043361D02*
X0193651Y0043361D01*
X0193651Y0044960D02*
X0179620Y0044960D01*
X0179620Y0046558D02*
X0193651Y0046558D01*
X0193651Y0048157D02*
X0179620Y0048157D01*
X0179620Y0049755D02*
X0193651Y0049755D01*
X0193766Y0051354D02*
X0179505Y0051354D01*
X0176372Y0052952D02*
X0256465Y0052952D01*
X0256465Y0051354D02*
X0244505Y0051354D01*
X0244620Y0049755D02*
X0256465Y0049755D01*
X0256465Y0048157D02*
X0244620Y0048157D01*
X0244620Y0046558D02*
X0255989Y0046558D01*
X0254391Y0044960D02*
X0244620Y0044960D01*
X0245990Y0043361D02*
X0252792Y0043361D01*
X0251194Y0041763D02*
X0247238Y0041763D01*
X0247238Y0040164D02*
X0249595Y0040164D01*
X0247997Y0038566D02*
X0247238Y0038566D01*
X0239335Y0038566D02*
X0238935Y0038566D01*
X0238935Y0037000D02*
X0238935Y0041316D01*
X0239335Y0041316D01*
X0239335Y0037000D01*
X0238935Y0037000D01*
X0238935Y0036967D02*
X0231281Y0036967D01*
X0231281Y0035369D02*
X0233817Y0035369D01*
X0234538Y0033770D02*
X0230652Y0033770D01*
X0230676Y0033789D02*
X0230841Y0033954D01*
X0230984Y0034140D01*
X0231101Y0034342D01*
X0231190Y0034559D01*
X0231251Y0034784D01*
X0231281Y0035016D01*
X0231281Y0043584D01*
X0231251Y0043815D01*
X0231190Y0044041D01*
X0231101Y0044258D01*
X0230984Y0044460D01*
X0230841Y0044646D01*
X0230676Y0044811D01*
X0230491Y0044953D01*
X0230288Y0045070D01*
X0230072Y0045160D01*
X0229846Y0045220D01*
X0229614Y0045251D01*
X0207352Y0045251D01*
X0207120Y0045220D01*
X0206894Y0045160D01*
X0206678Y0045070D01*
X0206475Y0044953D01*
X0206290Y0044811D01*
X0206124Y0044646D01*
X0205982Y0044460D01*
X0205865Y0044258D01*
X0205776Y0044041D01*
X0205715Y0043815D01*
X0205684Y0043584D01*
X0205684Y0035016D01*
X0205715Y0034784D01*
X0205776Y0034559D01*
X0205865Y0034342D01*
X0205982Y0034140D01*
X0206124Y0033954D01*
X0206290Y0033789D01*
X0206475Y0033647D01*
X0206678Y0033530D01*
X0206894Y0033440D01*
X0207120Y0033380D01*
X0207352Y0033349D01*
X0229614Y0033349D01*
X0229846Y0033380D01*
X0230072Y0033440D01*
X0230288Y0033530D01*
X0230491Y0033647D01*
X0230676Y0033789D01*
X0236148Y0032172D02*
X0202263Y0032172D01*
X0203118Y0030573D02*
X0235153Y0030573D01*
X0234100Y0028975D02*
X0204171Y0028975D01*
X0204620Y0027376D02*
X0233651Y0027376D01*
X0233651Y0025778D02*
X0204620Y0025778D01*
X0203986Y0024179D02*
X0234285Y0024179D01*
X0206314Y0033770D02*
X0203816Y0033770D01*
X0204479Y0035369D02*
X0205684Y0035369D01*
X0205684Y0036967D02*
X0204620Y0036967D01*
X0204340Y0038566D02*
X0205684Y0038566D01*
X0205684Y0040164D02*
X0203527Y0040164D01*
X0204021Y0041763D02*
X0205684Y0041763D01*
X0205684Y0043361D02*
X0204620Y0043361D01*
X0204620Y0044960D02*
X0206486Y0044960D01*
X0204620Y0046558D02*
X0233651Y0046558D01*
X0233651Y0044960D02*
X0230479Y0044960D01*
X0231281Y0043361D02*
X0233651Y0043361D01*
X0234249Y0041763D02*
X0231281Y0041763D01*
X0231281Y0040164D02*
X0234781Y0040164D01*
X0233926Y0038566D02*
X0231281Y0038566D01*
X0238935Y0040164D02*
X0239335Y0040164D01*
X0233651Y0048157D02*
X0204620Y0048157D01*
X0204620Y0049755D02*
X0233651Y0049755D01*
X0233766Y0051354D02*
X0204505Y0051354D01*
X0176372Y0054551D02*
X0256465Y0054551D01*
X0256465Y0056149D02*
X0176372Y0056149D01*
X0269081Y0030573D02*
X0282327Y0030573D01*
X0280729Y0028975D02*
X0269171Y0028975D01*
X0269620Y0027376D02*
X0279130Y0027376D01*
X0277532Y0025778D02*
X0269620Y0025778D01*
X0268986Y0024179D02*
X0275933Y0024179D01*
X0274335Y0022581D02*
X0267672Y0022581D01*
X0267709Y0020982D02*
X0272736Y0020982D01*
X0271138Y0019384D02*
X0269001Y0019384D01*
X0277332Y0016187D02*
X0308651Y0016187D01*
X0308651Y0017785D02*
X0278930Y0017785D01*
X0280529Y0019384D02*
X0309269Y0019384D01*
X0310562Y0020982D02*
X0282127Y0020982D01*
X0283726Y0022581D02*
X0310599Y0022581D01*
X0317672Y0022581D02*
X0328036Y0022581D01*
X0328036Y0024179D02*
X0318986Y0024179D01*
X0319620Y0025778D02*
X0328036Y0025778D01*
X0328036Y0027376D02*
X0319620Y0027376D01*
X0319171Y0028975D02*
X0328036Y0028975D01*
X0328036Y0030573D02*
X0318118Y0030573D01*
X0317122Y0032172D02*
X0328036Y0032172D01*
X0328036Y0033770D02*
X0318732Y0033770D01*
X0319453Y0035369D02*
X0328036Y0035369D01*
X0328036Y0036967D02*
X0314335Y0036967D01*
X0319345Y0038566D02*
X0328036Y0038566D01*
X0328036Y0040164D02*
X0318489Y0040164D01*
X0319021Y0041763D02*
X0328036Y0041763D01*
X0328036Y0043361D02*
X0319620Y0043361D01*
X0319620Y0044960D02*
X0328036Y0044960D01*
X0328036Y0046558D02*
X0319620Y0046558D01*
X0319620Y0048157D02*
X0328036Y0048157D01*
X0328036Y0049755D02*
X0319620Y0049755D01*
X0319505Y0051354D02*
X0328036Y0051354D01*
X0328036Y0052952D02*
X0271845Y0052952D01*
X0271845Y0051354D02*
X0308766Y0051354D01*
X0328036Y0054551D02*
X0271845Y0054551D01*
X0271845Y0056149D02*
X0328036Y0056149D01*
X0328036Y0057748D02*
X0271845Y0057748D01*
X0271845Y0059346D02*
X0328036Y0059346D01*
X0328036Y0060945D02*
X0271845Y0060945D01*
X0271845Y0062543D02*
X0328036Y0062543D01*
X0328036Y0064142D02*
X0271845Y0064142D01*
X0271845Y0065740D02*
X0328036Y0065740D01*
X0276234Y0049755D02*
X0271845Y0049755D01*
X0271845Y0048157D02*
X0275684Y0048157D01*
X0275684Y0046558D02*
X0271845Y0046558D01*
X0271845Y0044960D02*
X0275684Y0044960D01*
X0275684Y0043361D02*
X0271845Y0043361D01*
X0271845Y0041763D02*
X0275684Y0041763D01*
X0275684Y0040164D02*
X0271845Y0040164D01*
X0271845Y0038566D02*
X0276615Y0038566D01*
X0271845Y0036967D02*
X0303485Y0036967D01*
X0301886Y0035369D02*
X0271845Y0035369D01*
X0271845Y0033770D02*
X0300288Y0033770D01*
X0298689Y0032172D02*
X0270679Y0032172D01*
X0275733Y0014588D02*
X0309115Y0014588D01*
X0310190Y0012990D02*
X0274135Y0012990D01*
X0272536Y0011391D02*
X0312863Y0011391D01*
X0315408Y0011391D02*
X0328036Y0011391D01*
X0328036Y0009793D02*
X0270938Y0009793D01*
X0269339Y0008194D02*
X0328036Y0008194D01*
X0328036Y0012990D02*
X0318081Y0012990D01*
X0319155Y0014588D02*
X0328036Y0014588D01*
X0328036Y0016187D02*
X0319620Y0016187D01*
X0319620Y0017785D02*
X0328036Y0017785D01*
X0328036Y0019384D02*
X0319001Y0019384D01*
X0317709Y0020982D02*
X0328036Y0020982D01*
X0274393Y0129681D02*
X0273878Y0129681D01*
X0272412Y0131279D02*
X0275859Y0131279D01*
X0265726Y0132878D02*
X0322410Y0132878D01*
X0322410Y0134476D02*
X0264127Y0134476D01*
X0262528Y0136075D02*
X0322410Y0136075D01*
X0322410Y0137673D02*
X0260930Y0137673D01*
X0260034Y0139272D02*
X0322410Y0139272D01*
X0322410Y0140870D02*
X0258717Y0140870D01*
X0253210Y0142469D02*
X0265710Y0142469D01*
X0264331Y0144068D02*
X0253940Y0144068D01*
X0256016Y0150462D02*
X0265041Y0150462D01*
X0267503Y0152060D02*
X0254417Y0152060D01*
X0252819Y0153659D02*
X0328036Y0153659D01*
X0328036Y0155257D02*
X0234488Y0155257D01*
X0236087Y0153659D02*
X0243011Y0153659D01*
X0241412Y0152060D02*
X0240767Y0152060D01*
X0232890Y0156856D02*
X0328036Y0156856D01*
X0328036Y0158454D02*
X0231291Y0158454D01*
X0270767Y0152060D02*
X0277503Y0152060D01*
X0275041Y0150462D02*
X0273230Y0150462D01*
X0280767Y0152060D02*
X0292503Y0152060D01*
X0290041Y0150462D02*
X0283230Y0150462D01*
X0295767Y0152060D02*
X0322503Y0152060D01*
X0320041Y0150462D02*
X0298230Y0150462D01*
X0299217Y0148863D02*
X0319054Y0148863D01*
X0318651Y0147265D02*
X0299620Y0147265D01*
X0299602Y0145666D02*
X0318669Y0145666D01*
X0319331Y0144068D02*
X0298940Y0144068D01*
X0297560Y0142469D02*
X0320710Y0142469D01*
X0325767Y0152060D02*
X0328036Y0152060D01*
X0328036Y0160053D02*
X0113935Y0160053D01*
X0113935Y0161651D02*
X0328036Y0161651D01*
X0289331Y0144068D02*
X0283940Y0144068D01*
X0282560Y0142469D02*
X0290710Y0142469D01*
X0275710Y0142469D02*
X0272560Y0142469D01*
X0273940Y0144068D02*
X0274331Y0144068D01*
X0160208Y0158454D02*
X0113935Y0158454D01*
X0113935Y0156856D02*
X0158609Y0156856D01*
D16*
X0180986Y0151406D03*
X0174096Y0145501D03*
X0164253Y0141564D03*
X0131773Y0153375D03*
X0118978Y0145501D03*
X0123899Y0140580D03*
X0120946Y0137627D03*
X0142600Y0114005D03*
X0181970Y0120894D03*
X0231183Y0114989D03*
X0245946Y0105146D03*
X0186891Y0081524D03*
X0228230Y0066761D03*
X0245946Y0079556D03*
X0145553Y0057902D03*
X0120946Y0085461D03*
X0245946Y0132706D03*
X0254805Y0136643D03*
X0251852Y0139595D03*
X0247915Y0035265D03*
M02*
