G75*
%MOIN*%
%OFA0B0*%
%FSLAX25Y25*%
%IPPOS*%
%LPD*%
%AMOC8*
5,1,8,0,0,1.08239X$1,22.5*
%
%ADD10C,0.00800*%
%ADD11C,0.00500*%
%ADD12C,0.00600*%
D10*
X0129135Y0014300D02*
X0129135Y0019300D01*
X0131635Y0021800D01*
X0129135Y0024300D01*
X0129135Y0029300D01*
X0131635Y0031800D01*
X0129135Y0034300D01*
X0129135Y0039300D01*
X0131635Y0041800D01*
X0129135Y0044300D01*
X0129135Y0049300D01*
X0131635Y0051800D01*
X0136635Y0051800D01*
X0139135Y0049300D01*
X0139135Y0044300D01*
X0136635Y0041800D01*
X0139135Y0039300D01*
X0139135Y0034300D01*
X0136635Y0031800D01*
X0139135Y0029300D01*
X0139135Y0024300D01*
X0136635Y0021800D01*
X0139135Y0019300D01*
X0139135Y0014300D01*
X0136635Y0011800D01*
X0131635Y0011800D01*
X0129135Y0014300D01*
X0169135Y0014300D02*
X0169135Y0019300D01*
X0171635Y0021800D01*
X0169135Y0024300D01*
X0169135Y0029300D01*
X0171635Y0031800D01*
X0169135Y0034300D01*
X0169135Y0039300D01*
X0171635Y0041800D01*
X0169135Y0044300D01*
X0169135Y0049300D01*
X0171635Y0051800D01*
X0176635Y0051800D01*
X0179135Y0049300D01*
X0179135Y0044300D01*
X0176635Y0041800D01*
X0179135Y0039300D01*
X0179135Y0034300D01*
X0176635Y0031800D01*
X0179135Y0029300D01*
X0179135Y0024300D01*
X0176635Y0021800D01*
X0179135Y0019300D01*
X0179135Y0014300D01*
X0176635Y0011800D01*
X0171635Y0011800D01*
X0169135Y0014300D01*
X0194135Y0014300D02*
X0194135Y0019300D01*
X0196635Y0021800D01*
X0194135Y0024300D01*
X0194135Y0029300D01*
X0196635Y0031800D01*
X0194135Y0034300D01*
X0194135Y0039300D01*
X0196635Y0041800D01*
X0194135Y0044300D01*
X0194135Y0049300D01*
X0196635Y0051800D01*
X0201635Y0051800D01*
X0204135Y0049300D01*
X0204135Y0044300D01*
X0201635Y0041800D01*
X0204135Y0039300D01*
X0204135Y0034300D01*
X0201635Y0031800D01*
X0204135Y0029300D01*
X0204135Y0024300D01*
X0201635Y0021800D01*
X0204135Y0019300D01*
X0204135Y0014300D01*
X0201635Y0011800D01*
X0196635Y0011800D01*
X0194135Y0014300D01*
X0234135Y0014300D02*
X0234135Y0019300D01*
X0236635Y0021800D01*
X0234135Y0024300D01*
X0234135Y0029300D01*
X0236635Y0031800D01*
X0234135Y0034300D01*
X0234135Y0039300D01*
X0236635Y0041800D01*
X0234135Y0044300D01*
X0234135Y0049300D01*
X0236635Y0051800D01*
X0241635Y0051800D01*
X0244135Y0049300D01*
X0244135Y0044300D01*
X0241635Y0041800D01*
X0244135Y0039300D01*
X0244135Y0034300D01*
X0241635Y0031800D01*
X0244135Y0029300D01*
X0244135Y0024300D01*
X0241635Y0021800D01*
X0244135Y0019300D01*
X0244135Y0014300D01*
X0241635Y0011800D01*
X0236635Y0011800D01*
X0234135Y0014300D01*
X0259135Y0014300D02*
X0261635Y0011800D01*
X0266635Y0011800D01*
X0269135Y0014300D01*
X0269135Y0019300D01*
X0266635Y0021800D01*
X0269135Y0024300D01*
X0269135Y0029300D01*
X0266635Y0031800D01*
X0269135Y0034300D01*
X0269135Y0039300D01*
X0266635Y0041800D01*
X0269135Y0044300D01*
X0269135Y0049300D01*
X0266635Y0051800D01*
X0261635Y0051800D01*
X0259135Y0049300D01*
X0259135Y0044300D01*
X0261635Y0041800D01*
X0259135Y0039300D01*
X0259135Y0034300D01*
X0261635Y0031800D01*
X0259135Y0029300D01*
X0259135Y0024300D01*
X0261635Y0021800D01*
X0259135Y0019300D01*
X0259135Y0014300D01*
X0309135Y0014300D02*
X0309135Y0019300D01*
X0311635Y0021800D01*
X0309135Y0024300D01*
X0309135Y0029300D01*
X0311635Y0031800D01*
X0309135Y0034300D01*
X0309135Y0039300D01*
X0311635Y0041800D01*
X0309135Y0044300D01*
X0309135Y0049300D01*
X0311635Y0051800D01*
X0316635Y0051800D01*
X0319135Y0049300D01*
X0319135Y0044300D01*
X0316635Y0041800D01*
X0319135Y0039300D01*
X0319135Y0034300D01*
X0316635Y0031800D01*
X0319135Y0029300D01*
X0319135Y0024300D01*
X0316635Y0021800D01*
X0319135Y0019300D01*
X0319135Y0014300D01*
X0316635Y0011800D01*
X0311635Y0011800D01*
X0309135Y0014300D01*
X0311635Y0066800D02*
X0316635Y0066800D01*
X0319135Y0069300D01*
X0319135Y0074300D01*
X0316635Y0076800D01*
X0319135Y0079300D01*
X0319135Y0084300D01*
X0316635Y0086800D01*
X0319135Y0089300D01*
X0319135Y0094300D01*
X0316635Y0096800D01*
X0319135Y0099300D01*
X0319135Y0104300D01*
X0316635Y0106800D01*
X0311635Y0106800D01*
X0309135Y0104300D01*
X0309135Y0099300D01*
X0311635Y0096800D01*
X0309135Y0094300D01*
X0309135Y0089300D01*
X0311635Y0086800D01*
X0309135Y0084300D01*
X0309135Y0079300D01*
X0311635Y0076800D01*
X0309135Y0074300D01*
X0309135Y0069300D01*
X0311635Y0066800D01*
X0269135Y0069300D02*
X0266635Y0066800D01*
X0261635Y0066800D01*
X0259135Y0069300D01*
X0259135Y0074300D01*
X0261635Y0076800D01*
X0259135Y0079300D01*
X0259135Y0084300D01*
X0261635Y0086800D01*
X0259135Y0089300D01*
X0259135Y0094300D01*
X0261635Y0096800D01*
X0259135Y0099300D01*
X0259135Y0104300D01*
X0261635Y0106800D01*
X0266635Y0106800D01*
X0269135Y0104300D01*
X0269135Y0099300D01*
X0266635Y0096800D01*
X0269135Y0094300D01*
X0269135Y0089300D01*
X0266635Y0086800D01*
X0269135Y0084300D01*
X0269135Y0079300D01*
X0266635Y0076800D01*
X0269135Y0074300D01*
X0269135Y0069300D01*
X0244135Y0069300D02*
X0241635Y0066800D01*
X0236635Y0066800D01*
X0234135Y0069300D01*
X0234135Y0074300D01*
X0236635Y0076800D01*
X0234135Y0079300D01*
X0234135Y0084300D01*
X0236635Y0086800D01*
X0234135Y0089300D01*
X0234135Y0094300D01*
X0236635Y0096800D01*
X0234135Y0099300D01*
X0234135Y0104300D01*
X0236635Y0106800D01*
X0241635Y0106800D01*
X0244135Y0104300D01*
X0244135Y0099300D01*
X0241635Y0096800D01*
X0244135Y0094300D01*
X0244135Y0089300D01*
X0241635Y0086800D01*
X0244135Y0084300D01*
X0244135Y0079300D01*
X0241635Y0076800D01*
X0244135Y0074300D01*
X0244135Y0069300D01*
X0204135Y0069300D02*
X0201635Y0066800D01*
X0196635Y0066800D01*
X0194135Y0069300D01*
X0194135Y0074300D01*
X0196635Y0076800D01*
X0194135Y0079300D01*
X0194135Y0084300D01*
X0196635Y0086800D01*
X0194135Y0089300D01*
X0194135Y0094300D01*
X0196635Y0096800D01*
X0194135Y0099300D01*
X0194135Y0104300D01*
X0196635Y0106800D01*
X0201635Y0106800D01*
X0204135Y0104300D01*
X0204135Y0099300D01*
X0201635Y0096800D01*
X0204135Y0094300D01*
X0204135Y0089300D01*
X0201635Y0086800D01*
X0204135Y0084300D01*
X0204135Y0079300D01*
X0201635Y0076800D01*
X0204135Y0074300D01*
X0204135Y0069300D01*
X0179135Y0069300D02*
X0176635Y0066800D01*
X0171635Y0066800D01*
X0169135Y0069300D01*
X0169135Y0074300D01*
X0171635Y0076800D01*
X0169135Y0079300D01*
X0169135Y0084300D01*
X0171635Y0086800D01*
X0169135Y0089300D01*
X0169135Y0094300D01*
X0171635Y0096800D01*
X0169135Y0099300D01*
X0169135Y0104300D01*
X0171635Y0106800D01*
X0176635Y0106800D01*
X0179135Y0104300D01*
X0179135Y0099300D01*
X0176635Y0096800D01*
X0179135Y0094300D01*
X0179135Y0089300D01*
X0176635Y0086800D01*
X0179135Y0084300D01*
X0179135Y0079300D01*
X0176635Y0076800D01*
X0179135Y0074300D01*
X0179135Y0069300D01*
X0139135Y0069300D02*
X0136635Y0066800D01*
X0131635Y0066800D01*
X0129135Y0069300D01*
X0129135Y0074300D01*
X0131635Y0076800D01*
X0129135Y0079300D01*
X0129135Y0084300D01*
X0131635Y0086800D01*
X0129135Y0089300D01*
X0129135Y0094300D01*
X0131635Y0096800D01*
X0129135Y0099300D01*
X0129135Y0104300D01*
X0131635Y0106800D01*
X0136635Y0106800D01*
X0139135Y0104300D01*
X0139135Y0099300D01*
X0136635Y0096800D01*
X0139135Y0094300D01*
X0139135Y0089300D01*
X0136635Y0086800D01*
X0139135Y0084300D01*
X0139135Y0079300D01*
X0136635Y0076800D01*
X0139135Y0074300D01*
X0139135Y0069300D01*
X0136635Y0121800D02*
X0134135Y0124300D01*
X0131635Y0121800D01*
X0126635Y0121800D01*
X0124135Y0124300D01*
X0124135Y0129300D01*
X0126635Y0131800D01*
X0131635Y0131800D01*
X0134135Y0134300D01*
X0136635Y0131800D01*
X0141635Y0131800D01*
X0144135Y0134300D01*
X0146635Y0131800D01*
X0151635Y0131800D01*
X0154135Y0134300D01*
X0156635Y0131800D01*
X0161635Y0131800D01*
X0164135Y0134300D01*
X0166635Y0131800D01*
X0171635Y0131800D01*
X0174135Y0134300D01*
X0176635Y0131800D01*
X0181635Y0131800D01*
X0184135Y0134300D01*
X0186635Y0131800D01*
X0191635Y0131800D01*
X0194135Y0134300D01*
X0196635Y0131800D01*
X0201635Y0131800D01*
X0204135Y0134300D01*
X0206635Y0131800D01*
X0211635Y0131800D01*
X0214135Y0134300D01*
X0216635Y0131800D01*
X0221635Y0131800D01*
X0224135Y0134300D01*
X0224135Y0139300D01*
X0221635Y0141800D01*
X0216635Y0141800D01*
X0214135Y0139300D01*
X0211635Y0141800D01*
X0206635Y0141800D01*
X0204135Y0139300D01*
X0201635Y0141800D01*
X0196635Y0141800D01*
X0194135Y0139300D01*
X0191635Y0141800D01*
X0186635Y0141800D01*
X0184135Y0139300D01*
X0181635Y0141800D01*
X0176635Y0141800D01*
X0174135Y0139300D01*
X0171635Y0141800D01*
X0166635Y0141800D01*
X0164135Y0139300D01*
X0161635Y0141800D01*
X0156635Y0141800D01*
X0154135Y0139300D01*
X0151635Y0141800D01*
X0146635Y0141800D01*
X0144135Y0139300D01*
X0141635Y0141800D01*
X0136635Y0141800D01*
X0134135Y0139300D01*
X0131635Y0141800D01*
X0126635Y0141800D01*
X0124135Y0139300D01*
X0124135Y0134300D01*
X0126635Y0131800D01*
X0131635Y0131800D01*
X0134135Y0129300D01*
X0136635Y0131800D01*
X0141635Y0131800D01*
X0144135Y0129300D01*
X0146635Y0131800D01*
X0151635Y0131800D01*
X0154135Y0129300D01*
X0156635Y0131800D01*
X0161635Y0131800D01*
X0164135Y0129300D01*
X0166635Y0131800D01*
X0171635Y0131800D01*
X0174135Y0129300D01*
X0176635Y0131800D01*
X0181635Y0131800D01*
X0184135Y0129300D01*
X0186635Y0131800D01*
X0191635Y0131800D01*
X0194135Y0129300D01*
X0196635Y0131800D01*
X0201635Y0131800D01*
X0204135Y0129300D01*
X0206635Y0131800D01*
X0211635Y0131800D01*
X0214135Y0129300D01*
X0216635Y0131800D01*
X0221635Y0131800D01*
X0224135Y0129300D01*
X0224135Y0124300D01*
X0221635Y0121800D01*
X0216635Y0121800D01*
X0214135Y0124300D01*
X0211635Y0121800D01*
X0206635Y0121800D01*
X0204135Y0124300D01*
X0201635Y0121800D01*
X0196635Y0121800D01*
X0194135Y0124300D01*
X0191635Y0121800D01*
X0186635Y0121800D01*
X0184135Y0124300D01*
X0181635Y0121800D01*
X0176635Y0121800D01*
X0174135Y0124300D01*
X0171635Y0121800D01*
X0166635Y0121800D01*
X0164135Y0124300D01*
X0161635Y0121800D01*
X0156635Y0121800D01*
X0154135Y0124300D01*
X0151635Y0121800D01*
X0146635Y0121800D01*
X0144135Y0124300D01*
X0141635Y0121800D01*
X0136635Y0121800D01*
X0234135Y0124300D02*
X0236635Y0121800D01*
X0241635Y0121800D01*
X0244135Y0124300D01*
X0246635Y0121800D01*
X0251635Y0121800D01*
X0254135Y0124300D01*
X0254135Y0129300D01*
X0251635Y0131800D01*
X0246635Y0131800D01*
X0244135Y0129300D01*
X0241635Y0131800D01*
X0236635Y0131800D01*
X0234135Y0129300D01*
X0234135Y0124300D01*
X0264135Y0124300D02*
X0266635Y0121800D01*
X0271635Y0121800D01*
X0274135Y0124300D01*
X0276635Y0121800D01*
X0281635Y0121800D01*
X0284135Y0124300D01*
X0284135Y0129300D01*
X0281635Y0131800D01*
X0276635Y0131800D01*
X0274135Y0129300D01*
X0271635Y0131800D01*
X0266635Y0131800D01*
X0264135Y0129300D01*
X0264135Y0124300D01*
X0298135Y0126800D02*
X0299135Y0126800D01*
X0299135Y0129800D01*
X0319135Y0129800D01*
X0319135Y0126800D01*
X0320135Y0126800D01*
X0319135Y0126800D02*
X0319135Y0123800D01*
X0299135Y0123800D01*
X0299135Y0126800D01*
X0281635Y0141800D02*
X0276635Y0141800D01*
X0274135Y0144300D01*
X0271635Y0141800D01*
X0266635Y0141800D01*
X0264135Y0144300D01*
X0264135Y0149300D01*
X0266635Y0151800D01*
X0271635Y0151800D01*
X0274135Y0149300D01*
X0276635Y0151800D01*
X0281635Y0151800D01*
X0284135Y0149300D01*
X0284135Y0144300D01*
X0281635Y0141800D01*
X0298135Y0146800D02*
X0299135Y0146800D01*
X0299135Y0149800D01*
X0319135Y0149800D01*
X0319135Y0146800D01*
X0320135Y0146800D01*
X0319135Y0146800D02*
X0319135Y0143800D01*
X0299135Y0143800D01*
X0299135Y0146800D01*
X0254135Y0144300D02*
X0251635Y0141800D01*
X0246635Y0141800D01*
X0244135Y0144300D01*
X0241635Y0141800D01*
X0236635Y0141800D01*
X0234135Y0144300D01*
X0234135Y0149300D01*
X0236635Y0151800D01*
X0241635Y0151800D01*
X0244135Y0149300D01*
X0246635Y0151800D01*
X0251635Y0151800D01*
X0254135Y0149300D01*
X0254135Y0144300D01*
D11*
X0184135Y0006800D02*
X0124135Y0006800D01*
X0124135Y0056800D01*
X0184135Y0056800D01*
X0184135Y0006800D01*
X0189135Y0006800D02*
X0249135Y0006800D01*
X0249135Y0056800D01*
X0189135Y0056800D01*
X0189135Y0006800D01*
X0254135Y0006800D02*
X0324135Y0006800D01*
X0324135Y0056800D01*
X0254135Y0056800D01*
X0254135Y0006800D01*
X0254135Y0061800D02*
X0324135Y0061800D01*
X0324135Y0111800D01*
X0254135Y0111800D01*
X0254135Y0061800D01*
X0249135Y0061800D02*
X0189135Y0061800D01*
X0189135Y0111800D01*
X0249135Y0111800D01*
X0249135Y0061800D01*
X0184135Y0061800D02*
X0124135Y0061800D01*
X0124135Y0111800D01*
X0184135Y0111800D01*
X0184135Y0061800D01*
D12*
X0301435Y0125600D02*
X0303704Y0125600D01*
X0302570Y0125600D02*
X0302570Y0129003D01*
X0301435Y0127869D01*
X0305118Y0128436D02*
X0305118Y0126167D01*
X0307387Y0128436D01*
X0307387Y0126167D01*
X0306820Y0125600D01*
X0305686Y0125600D01*
X0305118Y0126167D01*
X0308802Y0125600D02*
X0308802Y0129003D01*
X0307387Y0128436D02*
X0306820Y0129003D01*
X0305686Y0129003D01*
X0305118Y0128436D01*
X0308802Y0126734D02*
X0310503Y0127869D01*
X0308802Y0126734D02*
X0310503Y0125600D01*
X0310503Y0145600D02*
X0308802Y0146734D01*
X0310503Y0147869D01*
X0308802Y0149003D02*
X0308802Y0145600D01*
X0307387Y0146167D02*
X0306820Y0145600D01*
X0305686Y0145600D01*
X0305118Y0146167D01*
X0307387Y0148436D01*
X0307387Y0146167D01*
X0305118Y0146167D02*
X0305118Y0148436D01*
X0305686Y0149003D01*
X0306820Y0149003D01*
X0307387Y0148436D01*
X0302570Y0149003D02*
X0302570Y0145600D01*
X0303704Y0145600D02*
X0301435Y0145600D01*
X0301435Y0147869D02*
X0302570Y0149003D01*
M02*
